<svg id="Слой_1" data-name="Слой 1" xmlns="http://www.w3.org/2000/svg" viewBox="0 0 128 128"><defs><style>.cls-1{fill:#0071b2;}.cls-2{fill:#fff;}.cls-3{fill:#b39d3e;}</style></defs><path class="cls-1" d="M35.83,33.47,51.22,54H49.45L36.78,36.72a1.21,1.21,0,0,0-1-.46,1.23,1.23,0,0,0-1,.46L22.2,54H20.43ZM46.52,54H25.14L35.83,39.42ZM19.25,56.37H52.41V99H41.75V81.24a1.19,1.19,0,0,0-1.19-1.19H31.09a1.18,1.18,0,0,0-1.18,1.19V99H19.25ZM39.38,99h-7.1V82.42h7.1Zm41.45,0H59.51V77.78a3.55,3.55,0,0,1,3.55-3.56H77.27a3.56,3.56,0,0,1,3.56,3.56ZM54.61,65.84h31V99H83.2V77.78a5.93,5.93,0,0,0-5.93-5.92H63.06a5.93,5.93,0,0,0-5.92,5.92V99H54.77V54.62L54.18,54,36.77,30.79a1.22,1.22,0,0,0-1.89,0L17.12,54.47a1.23,1.23,0,0,0-.23.71h0v45a1.18,1.18,0,0,0,1.18,1.19H86.75a1.18,1.18,0,0,0,1.18-1.19V64.66a1.18,1.18,0,0,0-1.18-1.19H54.61Z"/><path class="cls-1" d="M47.67,77.68a1.18,1.18,0,0,0,1.18-1.18V62.29a1.18,1.18,0,0,0-1.18-1.19H24a1.19,1.19,0,0,0-1.19,1.19V76.5A1.18,1.18,0,0,0,24,77.68Zm-22.5-7.1h9.47v4.73H25.17ZM37,75.31V70.58h9.48v4.73Zm9.48-7.1H37V63.47h9.48ZM34.64,63.47v4.74H25.17V63.47Z"/><path class="cls-1" d="M63.06,78.87H77.27v2.37H63.06Z"/><path class="cls-1" d="M63.06,84.79H77.27v2.37H63.06Z"/><path class="cls-1" d="M63.06,90.71H77.27v2.37H63.06Z"/><path class="cls-1" d="M58.33,45.34H67.8a4.74,4.74,0,1,0,0-9.47h-.65a4.71,4.71,0,0,0-8.17,0h-.65a4.74,4.74,0,1,0,0,9.47Zm0-7.1h1.4a1.18,1.18,0,0,0,1.11-.79,2.35,2.35,0,0,1,4.44,0,1.2,1.2,0,0,0,1.12.79h1.4a2.37,2.37,0,1,1,0,4.73H58.33a2.37,2.37,0,1,1,0-4.73Z"/><path class="cls-1" d="M117.31,99.52H99.73V94.71A5.87,5.87,0,0,0,104.42,89c0-.15-.07-15.24-5.87-15.24S92.69,88.82,92.69,89a5.87,5.87,0,0,0,4.69,5.74v4.81H9.86a1.18,1.18,0,0,0,0,2.35H117.31a1.18,1.18,0,1,0,0-2.35ZM95,89c0-5.84,1.57-12.9,3.51-12.9s3.52,7.06,3.52,12.9a3.52,3.52,0,1,1-7,0Z"/><path class="cls-2" d="M77.27,49.39s-.58,7.55,1.46,11.71S83,68.16,89.51,65.85C92.94,64.63,95,56.37,95,56.37l-1.1-9Z"/><path class="cls-3" d="M81.08,50.22C81,51.31,81,52.48,81,53.75c0,5.87,1.75,9.38,4.69,9.38,3.7,0,4.69-4.43,4.69-7a1.18,1.18,0,0,0-2.35,0s-.1,4.69-2.34,4.69c-1.36,0-2.35-3-2.35-7,0-13.67,4.8-15.23,5-15.27a1.18,1.18,0,0,0-.49-2.3,5,5,0,0,0-2.11,1.15,2.55,2.55,0,0,1,.08-.61,2.34,2.34,0,1,1,3.43,2.64,1.17,1.17,0,1,0,1.18,2,4.7,4.7,0,1,0-6.49-1.89,20.25,20.25,0,0,0-2.47,7.7,11.86,11.86,0,0,1-2.77-7.52,11.71,11.71,0,1,1,8,11.12A1.17,1.17,0,1,0,85.88,53a14.24,14.24,0,1,0-4.8-2.8Z"/><path class="cls-3" d="M118.14,60,106,47.77a1.19,1.19,0,0,0-1.66,0,1.17,1.17,0,0,0,0,1.66l11.83,11.84v4.2h-4.2l-.49-.48V62a1.17,1.17,0,0,0-1.17-1.17h-1.17V59.61a1.17,1.17,0,0,0-1.18-1.17h-3l-.48-.49v-3a1.17,1.17,0,0,0-1.18-1.17h-3l-.11-.12a1.19,1.19,0,0,0-1.66,0,1.17,1.17,0,0,0,0,1.66l.46.46a1.17,1.17,0,0,0,.83.34h2.34v2.35a1.15,1.15,0,0,0,.34.82l1.18,1.18a1.16,1.16,0,0,0,.83.34h2.34V62a1.18,1.18,0,0,0,1.17,1.18h1.18v2.34a1.17,1.17,0,0,0,.34.83l1.17,1.17a1.18,1.18,0,0,0,.83.35h5.86a1.18,1.18,0,0,0,1.18-1.18V60.78A1.18,1.18,0,0,0,118.14,60Z"/></svg>