<svg id="Слой_2" data-name="Слой 2" xmlns="http://www.w3.org/2000/svg" viewBox="0 0 128 128"><defs><style>.cls-1{fill:#0071b2;}.cls-2{fill:#b39d3e;}</style></defs><path class="cls-1" d="M101.52,30.62h-75a5.26,5.26,0,0,0-5.27,5.24V86.45a5.26,5.26,0,0,0,5.27,5.23H54.71v5.5h-8A2.7,2.7,0,0,0,44,99.87v2.44a2.7,2.7,0,0,0,2.7,2.69H81.31a2.7,2.7,0,0,0,2.7-2.69V99.87a2.7,2.7,0,0,0-2.7-2.69h-8v-5.5h28.23a5.26,5.26,0,0,0,5.27-5.23V35.86a5.26,5.26,0,0,0-5.27-5.24Zm-20,69.25v2.44a.19.19,0,0,1-.19.2H46.69a.19.19,0,0,1-.19-.2V99.87a.19.19,0,0,1,.19-.2H81.31A.19.19,0,0,1,81.5,99.87ZM70.79,97.18H57.21v-5.5H70.79Zm33.49-10.73a2.75,2.75,0,0,1-2.76,2.74h-75a2.75,2.75,0,0,1-2.76-2.74V35.86a2.76,2.76,0,0,1,2.76-2.75h75a2.76,2.76,0,0,1,2.76,2.75V86.45Z"/><path class="cls-1" d="M93.15,42H44.23a1.06,1.06,0,0,0-1.06,1.06V79.24a1.06,1.06,0,0,0,1.06,1.06H93.15a1.07,1.07,0,0,0,1.07-1.06V64.4a1.06,1.06,0,0,0-1.07-1.06H85.48a7.74,7.74,0,0,1,7.67-6.64,1.07,1.07,0,0,0,1.07-1.06V43.06A1.07,1.07,0,0,0,93.15,42ZM45.3,44.26h1.28v1.28H45.3Zm0,3.39h2.35a1.06,1.06,0,0,0,1.06-1V44.12H76.16V59.67H59.75a9.88,9.88,0,0,0-9.83-8.76A1.06,1.06,0,0,0,48.85,52v7.71H45.3ZM46.58,78H45.3V76.77h1.28V78Zm29.58.14H48.71V75.71a1.06,1.06,0,0,0-1.06-1.06H45.3V61.79h4.62A1.07,1.07,0,0,0,51,60.73s0-.1,0-.14,0-.1,0-.15V53.1a7.73,7.73,0,0,1,6.68,7.63,1.07,1.07,0,0,0,1.07,1.06H76.16v3a9.86,9.86,0,0,0-8.82,9.77,1.06,1.06,0,0,0,1.07,1h7.75ZM92.09,78H90.81V76.77h1.28Zm0-23.4a9.85,9.85,0,0,0-8.82,9.76,1.06,1.06,0,0,0,1.07,1.06h7.75v9.19H89.74a1.06,1.06,0,0,0-1.07,1.06v2.47H78.29V74.57a1.06,1.06,0,0,0-1.06-1.06H69.55a7.75,7.75,0,0,1,7.68-6.64,1.05,1.05,0,0,0,1.06-1.06V44.12H88.67V46.6a1.06,1.06,0,0,0,1.07,1h2.35v7Zm0-9.1H90.81V44.26h1.28Z"/><path class="cls-2" d="M34,77.4V44.63h2.64V42H28.73v2.63h2.64V77.4H28.73V80h7.92V77.4Z"/></svg>