<svg id="Слой_3" data-name="Слой 3" xmlns="http://www.w3.org/2000/svg" viewBox="0 0 128 128"><defs><style>.cls-1{fill:#0071b2;}.cls-1,.cls-2{stroke:#fff;stroke-miterlimit:10;stroke-width:3px;}.cls-2{fill:#fff;}.cls-3{fill:#b39d3e;}</style></defs><path class="cls-1" d="M98.75,68.63a13.67,13.67,0,0,0,2.33-7.74,11.56,11.56,0,0,0-3.62-8.49,11.72,11.72,0,0,0-8.58-3.61H80.49a20.69,20.69,0,0,0,2.29-9.11,19.59,19.59,0,0,0-1.67-8.82A10.42,10.42,0,0,0,76.25,26a16.33,16.33,0,0,0-7.2-1.54,6.06,6.06,0,0,0-4.29,1.75,11.35,11.35,0,0,0-3,5.13c-.6,2.08-1.09,4.09-1.45,6a8,8,0,0,1-1.7,4.06c-1.55,1.67-3.25,3.7-5.1,6.07Q48.74,53.72,47,54.87H34a5.9,5.9,0,0,0-4.31,1.77,5.82,5.82,0,0,0-1.79,4.3V91.31A6.09,6.09,0,0,0,34,97.38H47.69a35.13,35.13,0,0,1,6.58,1.9q5.86,2,10.32,3.11a38.7,38.7,0,0,0,9,1.06h6.15q6.72,0,10.83-3.82t4.05-10.41a13.31,13.31,0,0,0,2.86-8.45,15.31,15.31,0,0,0-.14-2,13.63,13.63,0,0,0,1.81-6.83A12.53,12.53,0,0,0,98.75,68.63Z"/><path class="cls-1" d="M39.16,90.41a3,3,0,0,1-2.15.9,3,3,0,0,1,0-6.08,3,3,0,0,1,2.15,5.18Z"/><path class="cls-2" d="M94,64.78c-.68,1.46-1.54,2.2-2.55,2.23a6.54,6.54,0,0,1,1.19,2.26,8.4,8.4,0,0,1,.48,2.63,7.51,7.51,0,0,1-2.53,5.65,6.55,6.55,0,0,1,.86,3.27,8,8,0,0,1-.84,3.49,5.32,5.32,0,0,1-2.26,2.49,16,16,0,0,1,.24,2.66q0,7.92-9.16,7.92H73.63q-6.25,0-16.31-3.46c-.16-.07-.62-.23-1.38-.5l-1.69-.6-1.67-.54c-.75-.24-1.35-.41-1.81-.52s-1-.22-1.58-.31a9.07,9.07,0,0,0-1.5-.14H46.17V60.94h1.52a4,4,0,0,0,1.69-.43,7.87,7.87,0,0,0,1.91-1.28c.65-.57,1.26-1.13,1.84-1.68s1.2-1.25,1.9-2.09,1.25-1.51,1.65-2,.9-1.15,1.5-1.94l1.1-1.43c1.74-2.15,3-3.59,3.67-4.31a12.12,12.12,0,0,0,2.83-5.2c.59-2.1,1.08-4.09,1.46-6a7.81,7.81,0,0,1,1.81-4c3,0,5.08.75,6.1,2.23s1.53,3.78,1.53,6.88c0,1.87-.77,4.41-2.29,7.62S72.1,53,72.1,54.87H88.88a5.87,5.87,0,0,1,4.24,1.82A5.79,5.79,0,0,1,95,60.94,9.26,9.26,0,0,1,94,64.78Z"/><path class="cls-3" d="M40.06,88.29a3.05,3.05,0,1,1-6.1-.11,3.05,3.05,0,0,1,6.1.11Z"/></svg>