<svg id="Слой_4" data-name="Слой 4" xmlns="http://www.w3.org/2000/svg" viewBox="0 0 128 128"><defs><style>.cls-1{fill:#0071b2;}.cls-2{fill:#b39d3e;}</style></defs><path class="cls-1" d="M66.57,27.09a10.94,10.94,0,0,1,4.05,2.74A30,30,0,0,0,86.08,37c1.61.26,3.24.38,4.86.58a8.1,8.1,0,0,1,7.39,8.25c0,5.61.12,11.24-.18,16.85A49.21,49.21,0,0,1,92.62,83.9,38.82,38.82,0,0,1,79.57,98a54,54,0,0,1-11.85,5.8,5.53,5.53,0,0,1-3.76.11c-7.18-2.49-13.71-6-19.06-11.54A39.77,39.77,0,0,1,34.8,73.68a77.83,77.83,0,0,1-1.95-18.81c0-2.91.15-5.82.11-8.73a8.4,8.4,0,0,1,8.25-8.66,33.53,33.53,0,0,0,10.55-2.22,29.38,29.38,0,0,0,8.89-5.38c1.26-1.1,2.43-2.31,4.11-2.79ZM36,53.67a74.07,74.07,0,0,0,1.74,19.12,36.92,36.92,0,0,0,12.06,20.1,47.31,47.31,0,0,0,15.39,8.47,1.94,1.94,0,0,0,1.21-.07,51.27,51.27,0,0,0,10.42-5,36.38,36.38,0,0,0,14-15.58,52,52,0,0,0,4.37-18.07,164,164,0,0,0,.15-18.15A3.7,3.7,0,0,0,92,40.86c-2.51-.36-5-.54-7.53-1A35.82,35.82,0,0,1,66.73,30.6c-1-1-1.09-1-2.14,0a35.8,35.8,0,0,1-17.77,9.21c-2.43.49-4.92.66-7.38,1A3.74,3.74,0,0,0,36,44.78C36,47.75,36,50.71,36,53.67Z"/><path class="cls-1" d="M65.64,46.43A19.22,19.22,0,1,1,46.45,65.64,19.28,19.28,0,0,1,65.64,46.43Zm0,3.39A15.83,15.83,0,1,0,81.48,65.63,15.87,15.87,0,0,0,65.63,49.82Z"/><path class="cls-2" d="M62.38,68.79a4.36,4.36,0,0,1,.5-.79c2.69-2.71,5.39-5.4,8.08-8.1a2.32,2.32,0,0,1,2.43-.78,2.24,2.24,0,0,1,1.16,3.56,3.33,3.33,0,0,1-.25.28Q69.14,68.12,64,73.28a2.24,2.24,0,0,1-3.45,0C59.26,72,58,70.76,56.75,69.48a2.28,2.28,0,0,1-.11-3.29,2.24,2.24,0,0,1,3.29.09C60.7,67,61.43,67.82,62.38,68.79Z"/></svg>