<svg id="Слой_5" data-name="Слой 5" xmlns="http://www.w3.org/2000/svg" viewBox="0 0 128 128"><defs><style>.cls-1{fill:#0071b2;}.cls-2{fill:#b39d3e;}</style></defs><path class="cls-1" d="M101.73,87.86a1.31,1.31,0,1,0,0-2.61h-1.3a1.3,1.3,0,0,0-2.6,0H77a1.3,1.3,0,0,0-2.6,0h-1.3a1.31,1.31,0,0,0,0,2.61h1.3v3.9h-1.3a1.3,1.3,0,0,0,0,2.6h1.3v1.3h-1.3a1.31,1.31,0,0,0,0,2.61h1.3v3.9H52.29V91.4a12.79,12.79,0,0,0,6.31,1.66A13.41,13.41,0,0,0,71.81,79.5,13.56,13.56,0,0,0,64.4,67.31a11.91,11.91,0,0,0-7.1-18.68,10.06,10.06,0,0,0-8.91-14.22h-.12a9.1,9.1,0,0,0-18,.21,6.51,6.51,0,0,0,1.22,12.9h7.59a9.13,9.13,0,0,0,.41,1.1,11.74,11.74,0,0,0-9.4,11.61,11.91,11.91,0,0,0,2.3,7.08A13.56,13.56,0,0,0,25,79.5,13.42,13.42,0,0,0,38.18,93.06a12.76,12.76,0,0,0,6.3-1.66v10.77H26.27a1.3,1.3,0,1,0,0,2.6h75.46a1.3,1.3,0,1,0,0-2.6h-1.3v-3.9h1.3a1.31,1.31,0,1,0,0-2.61h-1.3v-1.3h1.3a1.3,1.3,0,1,0,0-2.6h-1.3v-3.9ZM38.58,44.47c0,.15,0,.3,0,.45H31.47a3.91,3.91,0,0,1,0-7.81,1.3,1.3,0,0,0,.92-.38,1.32,1.32,0,0,0,.38-.92,6.49,6.49,0,0,1,12.91-1A10,10,0,0,0,38.58,44.47Zm11.11,57.7H47.08V89.49a12.4,12.4,0,0,0,1.31-1.4,12.32,12.32,0,0,0,1.3,1.4v12.68Zm.16-16.54,8.56-8.56a1.3,1.3,0,0,0-1.84-1.84l-6.88,6.88V68.88l6.12-6.13A1.3,1.3,0,0,0,54,60.91L49.69,65.2v-6a1.31,1.31,0,0,0-2.61,0v6L42.8,60.91A1.3,1.3,0,0,0,41,62.75l6.12,6.13V82.11L40.2,75.23a1.3,1.3,0,0,0-1.84,1.84l8.57,8.56a10.42,10.42,0,0,1-8.75,4.83,11,11,0,0,1-3.24-21.4,1.3,1.3,0,0,0,.51-2.16,9.29,9.29,0,0,1-2.78-6.67A9.07,9.07,0,0,1,41.48,51a1.33,1.33,0,0,0,1.3-.71A1.31,1.31,0,0,0,42.67,49a7.47,7.47,0,0,1-1.49-4.48,7.21,7.21,0,1,1,14.41,0A7.47,7.47,0,0,1,54.1,49,1.31,1.31,0,0,0,54,50.31a1.33,1.33,0,0,0,1.18.71,9.07,9.07,0,0,1,8.91,9.21,9.29,9.29,0,0,1-2.78,6.67A1.31,1.31,0,0,0,61,68.12a1.3,1.3,0,0,0,.86.94,11,11,0,0,1-3.23,21.4A10.39,10.39,0,0,1,49.85,85.63Zm48,16.54H77v-3.9H97.83Zm0-6.51H77v-1.3H97.83Zm0-3.9H77v-3.9H97.83Z"/><path class="cls-2" d="M80.92,59.23H96.53a6.51,6.51,0,0,0,1.22-12.9,9.11,9.11,0,0,0-18.06,0,6.51,6.51,0,0,0,1.23,12.9Zm0-10.41a1.34,1.34,0,0,0,.92-.38,1.32,1.32,0,0,0,.38-.92,6.51,6.51,0,1,1,13,0,1.32,1.32,0,0,0,.38.92,1.3,1.3,0,0,0,.92.38,3.91,3.91,0,0,1,0,7.81H80.92a3.91,3.91,0,1,1,0-7.81Z"/></svg>