<svg id="Слой_6" data-name="Слой 6" xmlns="http://www.w3.org/2000/svg" viewBox="0 0 128 128"><defs><style>.cls-1{fill:#b39d3e;}.cls-2{fill:#e03934;}.cls-3{fill:#0071b2;}</style></defs><path class="cls-1" d="M76.34,74.28l-1.88,5.63a1.08,1.08,0,0,0,1.37,1.36l5.62-1.88Z"/><path class="cls-1" d="M93.09,56.53l-14.2,14.2L85,76.85l14.2-14.2Z"/><path class="cls-1" d="M105.39,50.34a4.49,4.49,0,0,0-6.12,0l-3.14,3.13,6.13,6.12,3.13-3.13a4.34,4.34,0,0,0,0-6.13"/><path class="cls-2" d="M95.73,57h0"/><path class="cls-2" d="M95.75,57l0,0,0,0"/><path class="cls-2" d="M95.77,57h0"/><path class="cls-3" d="M89.54,42.75H73.81V27.06h1.74a8,8,0,0,1,5.59,2.3l6.1,6.1A7.79,7.79,0,0,1,89.54,41ZM76.56,40H86.69a5,5,0,0,0-1.39-2.59L79.2,31.3a5.25,5.25,0,0,0-2.64-1.39Z"/><path class="cls-3" d="M81.7,103.41H38.64a7.85,7.85,0,0,1-7.84-7.84V34.91a7.85,7.85,0,0,1,7.84-7.85H72.36V43.53a.72.72,0,0,0,.71.78H89.6V55.6l-15,14.94a7.2,7.2,0,0,0-1.73,2.83h0L70.8,79.54a4,4,0,0,0,.54,3.61,4,4,0,0,0,3.26,1.68l.78,0,6.69-2.23a7.11,7.11,0,0,0,2.81-1.74l4.72-4.6V95.57A7.88,7.88,0,0,1,81.7,103.41ZM38.64,29.81a5.1,5.1,0,0,0-5.09,5.1V95.57a5.09,5.09,0,0,0,5.09,5.09H81.7a5.12,5.12,0,0,0,5.15-5.09V82.74l0,0a10,10,0,0,1-3.87,2.39l-7.22,2.36-1,.06h0a6.83,6.83,0,0,1-5.56-2.82,6.75,6.75,0,0,1-.92-6.09l2-6.17a10.22,10.22,0,0,1,2.41-3.9l14.2-14.14v-7.4H73.07a3.46,3.46,0,0,1-3.46-3.53V29.81ZM80.17,94.87H66.45V92.12H80.17Zm-16-16.49H39.63V75.63H64.18Zm0-8.9H39.63V66.73H64.18Zm0-9H39.63V57.75H64.18Zm-4-9.78H39.63V48H60.2Z"/></svg>