<svg id="Слой_7" data-name="Слой 7" xmlns="http://www.w3.org/2000/svg" viewBox="0 0 128 128"><defs><style>.cls-1{fill:#0071b2;}.cls-2{fill:#b39d3e;}</style></defs><rect class="cls-1" x="38.79" y="79.42" width="2.46" height="17.05"/><path class="cls-1" d="M40,80.65A11.21,11.21,0,1,1,51.22,69.44,11.22,11.22,0,0,1,40,80.65Zm0-20a8.75,8.75,0,1,0,8.76,8.75A8.77,8.77,0,0,0,40,60.69Z"/><path class="cls-1" d="M54.1,106.85H25.93a2.39,2.39,0,0,1-2.39-2.39v-16a2.39,2.39,0,0,1,2.39-2.39h10.2v2.46H25.93L26,104.46l28.11-.07L54,88.48l-9.86.07V86.09H54.1a2.39,2.39,0,0,1,2.39,2.39v16A2.39,2.39,0,0,1,54.1,106.85Z"/><rect class="cls-1" x="84.97" y="66.32" width="2.46" height="17.05"/><path class="cls-1" d="M86.2,67.55A11.21,11.21,0,1,1,97.41,56.34,11.22,11.22,0,0,1,86.2,67.55Zm0-20A8.75,8.75,0,1,0,95,56.34,8.76,8.76,0,0,0,86.2,47.59Z"/><path class="cls-1" d="M100.29,93.75H72.11a2.39,2.39,0,0,1-2.39-2.39v-16A2.39,2.39,0,0,1,72.11,73H82.32v2.46H72.11l.07,15.91,28.11-.07-.07-15.91-9.85.07V73h9.92a2.39,2.39,0,0,1,2.39,2.39v16A2.39,2.39,0,0,1,100.29,93.75Z"/><rect class="cls-1" x="59.17" y="37.02" width="2.46" height="11.08"/><path class="cls-2" d="M60.4,38.25a8.46,8.46,0,1,1,8.46-8.45A8.46,8.46,0,0,1,60.4,38.25Zm0-14.45a6,6,0,1,0,6,6A6,6,0,0,0,60.4,23.8Z"/><path class="cls-1" d="M69.16,55.28H51.65a2.39,2.39,0,0,1-2.39-2.38V43.32a2.39,2.39,0,0,1,2.39-2.39h6.23v2.46H51.65l.07,9.51,17.44-.07-.07-9.51-6,.07V40.93h6a2.39,2.39,0,0,1,2.39,2.39V52.9A2.39,2.39,0,0,1,69.16,55.28Z"/><rect class="cls-1" x="59.38" y="57.37" width="2.05" height="1.02"/><path class="cls-1" d="M61.43,75.71h-2V73.54h2Zm0-4.33h-2V69.21h2Zm0-4.33h-2V64.88h2Zm0-4.33h-2V60.56h2Z"/><rect class="cls-1" x="59.38" y="77.87" width="2.05" height="2.05"/><rect class="cls-1" x="62.69" y="77.87" width="1.26" height="2.05"/><rect class="cls-1" x="65.21" y="77.87" width="1.02" height="2.05"/><rect class="cls-1" x="59.77" y="101.9" width="1.02" height="2.05"/><path class="cls-1" d="M83,104H80.74v-2H83Zm-4.43,0H76.31v-2h2.22Zm-4.44,0H71.88v-2h2.21Zm-4.43,0H67.44v-2h2.22Zm-4.44,0H63v-2h2.21Z"/><rect class="cls-1" x="85.18" y="101.9" width="2.05" height="2.05"/><rect class="cls-1" x="85.18" y="98.96" width="2.05" height="1.47"/><rect class="cls-1" x="85.18" y="96.47" width="2.05" height="1.02"/><path class="cls-1" d="M37.94,70.92a2.94,2.94,0,0,1,.33-.52L43.62,65a1.54,1.54,0,0,1,1.61-.53A1.48,1.48,0,0,1,46,66.87c0,.07-.11.13-.16.19L39,73.9a1.48,1.48,0,0,1-2.29,0c-.84-.83-1.68-1.66-2.5-2.5a1.52,1.52,0,0,1-.08-2.19,1.49,1.49,0,0,1,2.18.06C36.82,69.76,37.31,70.28,37.94,70.92Z"/><path class="cls-1" d="M84.12,57.82a3.61,3.61,0,0,1,.34-.52l5.35-5.36a1.54,1.54,0,0,1,1.61-.53,1.49,1.49,0,0,1,.77,2.37L92,54c-2.28,2.28-4.55,4.57-6.84,6.84a1.47,1.47,0,0,1-2.28,0c-.85-.83-1.68-1.66-2.51-2.5a1.52,1.52,0,0,1-.07-2.19,1.49,1.49,0,0,1,2.18.06C83,56.66,83.5,57.18,84.12,57.82Z"/></svg>