<svg id="Слой_8" data-name="Слой 8" xmlns="http://www.w3.org/2000/svg" viewBox="0 0 128 128"><defs><style>.cls-1{fill:#b39d3e;}.cls-2{fill:#0071b2;}</style></defs><path class="cls-1" d="M96,36.28a9.09,9.09,0,0,0-6.59,2.87,9.78,9.78,0,0,0-.1,13.41l5.36,5.62a1.55,1.55,0,0,0,2.22,0l5.43-5.68a9.8,9.8,0,0,0,.09-13.43A8.76,8.76,0,0,0,96,36.28Zm4.13,14.07L95.8,54.87l-4.24-4.44a6.69,6.69,0,0,1,.07-9.15A6,6,0,0,1,96,39.37a5.85,5.85,0,0,1,4.21,1.83A6.68,6.68,0,0,1,100.12,50.35Z"/><path class="cls-1" d="M95.78,40.66a4.83,4.83,0,1,0,4.83,4.83A4.83,4.83,0,0,0,95.78,40.66Zm0,6.59a1.74,1.74,0,1,1,1.75-1.74A1.74,1.74,0,0,1,95.78,47.25Z"/><path class="cls-2" d="M95.83,29.91a17.92,17.92,0,0,0-15.27,8.58l-31.32-.2h0a6.4,6.4,0,0,0-4.51,1.85,6.32,6.32,0,0,0-1.9,4.49V87.46A6.52,6.52,0,0,0,46,93v4.36a3.93,3.93,0,0,0,4,3.89h5.17a3.93,3.93,0,0,0,4-3.89v-3.5H85.69v3.52a3.88,3.88,0,0,0,3.91,3.89h5.17a3.84,3.84,0,0,0,3.88-3.89V93a6.17,6.17,0,0,0,3.24-5.51V64.64a17.9,17.9,0,0,0-6.06-34.73ZM46.88,42.33a3.32,3.32,0,0,1,2.33-1h0l29.84.19A17.45,17.45,0,0,0,78,46.5l-32.06-.22V44.63A3.22,3.22,0,0,1,46.88,42.33Zm-1,25.44V49.37l24.84.17V67.88ZM56.07,97.35a.84.84,0,0,1-.89.8H50a.85.85,0,0,1-.61-.22.81.81,0,0,1-.27-.58V93.82h6.94Zm39.5,0a.77.77,0,0,1-.23.58.76.76,0,0,1-.57.22H89.6a.81.81,0,0,1-.59-.22.78.78,0,0,1-.23-.58V93.83h6.79Zm0-6.6H49.21a3.34,3.34,0,0,1-3.32-3.29V70.86L71.52,71a1.56,1.56,0,0,0,.74.18A1.51,1.51,0,0,0,73,71l25.83.1V87.46A3.27,3.27,0,0,1,95.55,90.75ZM98.81,68l-25-.11V49.55l4.22,0a17.91,17.91,0,0,0,17.8,16.11,17.66,17.66,0,0,0,3-.25V68Zm-3-5.39a14.81,14.81,0,1,1,14.81-14.81A14.81,14.81,0,0,1,95.83,62.6Z"/><path class="cls-2" d="M96.65,78.56A1.56,1.56,0,0,0,95.11,77H86.77a1.56,1.56,0,0,0-1.54,1.55v5.71a1.54,1.54,0,0,0,1.54,1.54h8.34a1.54,1.54,0,0,0,1.54-1.54Zm-2.93,4.16h-5.4V80.1h5.4Z"/><path class="cls-2" d="M59.47,78.56A1.57,1.57,0,0,0,57.92,77H49.59a1.56,1.56,0,0,0-1.54,1.55v5.71a1.54,1.54,0,0,0,1.54,1.54h8.33a1.56,1.56,0,0,0,1.55-1.54Zm-3.09,4.16H51.13V80.1h5.25Z"/><path class="cls-2" d="M80.25,83H64.53a1.55,1.55,0,1,0,0,3.09H80.25a1.55,1.55,0,0,0,0-3.09Z"/><path class="cls-2" d="M80.25,77.63H64.53a1.55,1.55,0,1,0,0,3.09H80.25a1.55,1.55,0,0,0,0-3.09Z"/><path class="cls-2" d="M23.36,101.23c-2,0-4,0-6,0-1.09,0-1.87-.41-1.94-1.56A1.55,1.55,0,0,1,17.25,98c1.36.09,1.39-.57,1.38-1.59,0-5.2,0-10.4,0-15.6a4.75,4.75,0,0,1,2.46-4.58,1.08,1.08,0,0,0,.67-1.12q0-7.35,0-14.7c0-.77-.21-1-1-1.29a8,8,0,0,1-5.27-8.51c.72-4.36,3.64-6.73,7.45-7a7.9,7.9,0,0,1,8.34,6.13c.77,4.34-1,7.83-5.19,9.38-.84.32-1,.65-1,1.45,0,4.75,0,9.5,0,14.25a1.36,1.36,0,0,0,.74,1.44,4.85,4.85,0,0,1,2.56,4.65c0,5.26,0,10.51,0,15.76,0,.85,0,1.34,1.15,1.3s1.95.42,1.88,1.76-.91,1.49-1.95,1.48C27.37,101.22,25.36,101.23,23.36,101.23ZM18.69,51.62a4.76,4.76,0,1,0,4.6-4.75A4.59,4.59,0,0,0,18.69,51.62ZM25,88.88c0-2.69,0-5.38,0-8.08,0-1.09-.43-1.91-1.54-1.93a1.67,1.67,0,0,0-1.71,1.86c0,5.49-.09,11,0,16.46,0,1.53,1.48.48,2.24.73s1-.16,1-1C25,94.27,25,91.58,25,88.88Z"/></svg>