<svg id="CLOSE" xmlns="http://www.w3.org/2000/svg" viewBox="0 0 32 32"><defs><style>.cls-1{fill:#868686;}</style></defs><line class="cls-1" x1="1.67" y1="1.67" x2="30.39" y2="30.39"/><path class="cls-1" d="M30.39,31.89a1.49,1.49,0,0,1-1.06-.44L.61,2.73A1.5,1.5,0,0,1,2.73.61L31.45,29.33a1.49,1.49,0,0,1,0,2.12A1.51,1.51,0,0,1,30.39,31.89Z"/><line class="cls-1" x1="30.39" y1="1.67" x2="1.67" y2="30.39"/><path class="cls-1" d="M1.67,31.89a1.51,1.51,0,0,1-1.06-.44,1.49,1.49,0,0,1,0-2.12L29.33.61a1.5,1.5,0,1,1,2.12,2.12L2.73,31.45A1.51,1.51,0,0,1,1.67,31.89Z"/></svg>