<svg id="Слой_2" data-name="Слой 2" xmlns="http://www.w3.org/2000/svg" viewBox="0 0 128 128"><defs><style>.cls-1{fill:#0071b2;}.cls-2{fill:#fff;}</style></defs><circle class="cls-1" cx="63.86" cy="63.75" r="63.26"/><path class="cls-2" d="M96.81,37.37,80.48,77.61a5.12,5.12,0,0,1-8.36,1.69l-8.61-8.6-7.15,7.15A2.55,2.55,0,0,1,57,79.5a2.59,2.59,0,0,1-.74,1.81L42.08,95.46a5.87,5.87,0,0,1-8.26,0l-1.27-1.28a5.84,5.84,0,0,1,0-8.26L46.7,71.78a2.53,2.53,0,0,1,3.45-.14l7.16-7.15L48.7,55.88a5.11,5.11,0,0,1,1.69-8.35L90.63,31.19a4.64,4.64,0,0,1,1.79-.35,4.74,4.74,0,0,1,4.39,6.53Z"/></svg>