<svg id="Слой_1" data-name="Слой 1" xmlns="http://www.w3.org/2000/svg" viewBox="0 0 32 32"><defs><style>.cls-1{fill:#fff;}</style></defs><path class="cls-1" d="M16,0A16,16,0,1,0,32,16,16,16,0,0,0,16,0Zm9.17,23-2.81,0a2,2,0,0,1-1.4-.43c-1-.72-2-2.59-2.81-2.35s-.75,1.94-.75,1.94a.93.93,0,0,1-.18.55,1,1,0,0,1-.57.25H15.4a7.25,7.25,0,0,1-5.22-2.38c-2.66-2.77-5-8.27-5-8.27s-.13-.36,0-.53.61-.21.61-.21l3,0a1.32,1.32,0,0,1,.49.2.88.88,0,0,1,.26.35,19,19,0,0,0,1.13,2.34c1.25,2.16,1.83,2.64,2.26,2.41.62-.34.44-3.07.44-3.07a3,3,0,0,0-.32-1.43,1.43,1.43,0,0,0-.93-.47c-.17,0,.11-.41.47-.59a6.91,6.91,0,0,1,2.62-.27,5.45,5.45,0,0,1,1.47.15c1,.25.69,1.22.69,3.53,0,.74-.14,1.79.4,2.13.23.15.79,0,2.2-2.37a18.7,18.7,0,0,0,1.16-2.46.88.88,0,0,1,.28-.34.76.76,0,0,1,.41-.07l3.16,0s1-.11,1.1.32-.35,1.5-1.64,3.22c-2.12,2.82-2.36,2.56-.6,4.19a9.7,9.7,0,0,1,2.09,2.41C26.63,22.93,25.17,23,25.17,23Z"/><path class="cls-1" d="M19.06,16A3.06,3.06,0,1,1,16,12.94,3.06,3.06,0,0,1,19.06,16Z"/><path class="cls-1" d="M23.16,10.58a3.1,3.1,0,0,0-1.74-1.74,5,5,0,0,0-1.71-.32c-1,0-1.26,0-3.71,0s-2.74,0-3.71,0a5,5,0,0,0-1.71.32,3.1,3.1,0,0,0-1.74,1.74,5,5,0,0,0-.32,1.71c0,1,0,1.26,0,3.71s0,2.74,0,3.71a5,5,0,0,0,.32,1.71,3,3,0,0,0,.68,1.06,2.84,2.84,0,0,0,1.06.68,5,5,0,0,0,1.71.32c1,0,1.26.05,3.71.05s2.74,0,3.71-.05a5,5,0,0,0,1.71-.32,3,3,0,0,0,1.74-1.74,5,5,0,0,0,.32-1.71c0-1,.05-1.26.05-3.71s0-2.74-.05-3.71A5,5,0,0,0,23.16,10.58ZM16,20.72A4.72,4.72,0,1,1,20.72,16,4.72,4.72,0,0,1,16,20.72Zm4.9-8.52A1.11,1.11,0,1,1,22,11.1,1.11,1.11,0,0,1,20.9,12.2Z"/><path class="cls-1" d="M16,0A16,16,0,1,0,32,16,16,16,0,0,0,16,0Zm9.13,19.79A6.85,6.85,0,0,1,24.71,22,4.75,4.75,0,0,1,22,24.71a6.85,6.85,0,0,1-2.23.42c-1,.05-1.29.06-3.79.06s-2.81,0-3.79-.06A6.85,6.85,0,0,1,10,24.71a4.78,4.78,0,0,1-1.63-1.06A4.62,4.62,0,0,1,7.3,22a6.57,6.57,0,0,1-.43-2.23c0-1-.06-1.29-.06-3.79s0-2.81.06-3.79A6.85,6.85,0,0,1,7.29,10,4.69,4.69,0,0,1,10,7.29a6.85,6.85,0,0,1,2.23-.42c1,0,1.29-.06,3.79-.06s2.81,0,3.79.06A6.85,6.85,0,0,1,22,7.29,4.69,4.69,0,0,1,24.71,10a6.85,6.85,0,0,1,.42,2.23c.05,1,.06,1.29.06,3.79S25.18,18.81,25.13,19.79Z"/></svg>