<svg id="Слой_1" data-name="Слой 1" xmlns="http://www.w3.org/2000/svg" xmlns:xlink="http://www.w3.org/1999/xlink" viewBox="0 0 321.3 70"><defs><style>.cls-1{fill:#c2af58;}.cls-2{fill:#a59646;}.cls-3{fill:url(#Безымянный_градиент_2);}.cls-4{fill:#203852;}.cls-5{fill:#fff;}</style><radialGradient id="Безымянный_градиент_2" cx="30.92" cy="30.05" r="19.13" gradientTransform="matrix(1, 0, 0, -1, 0, 72)" gradientUnits="userSpaceOnUse"><stop offset="0" stop-color="#3d72b0"/><stop offset="1" stop-color="#4162a3"/></radialGradient></defs><path class="cls-1" d="M82.78,40.36V35.87H79.07a24.8,24.8,0,0,0-3.95.12v4.32a10.16,10.16,0,0,0,.21,2.33c0,.11.28.22.73.33a4.32,4.32,0,0,0,.93.16.47.47,0,0,1,.09.3,1,1,0,0,1,0,.43c-1.71-.08-2.7-.12-3-.12L71,43.86a.62.62,0,0,1-.1-.38c0-.22,0-.35.1-.35A4.92,4.92,0,0,0,72,43c.43-.1.68-.21.73-.35a10.43,10.43,0,0,0,.17-2.23V30.68a11.12,11.12,0,0,0-.17-2.23c-.05-.1-.3-.22-.74-.33A4.34,4.34,0,0,0,71,28a.61.61,0,0,1-.1-.35c0-.22,0-.34.1-.38H72.5c.64,0,1.24.06,1.58.06s1,0,1.62-.06h1.38a1,1,0,0,1,0,.42c0,.2,0,.31-.09.31a4.32,4.32,0,0,0-.93.16c-.45.11-.7.22-.73.33a10.16,10.16,0,0,0-.21,2.33v3.79h7.64a.17.17,0,0,0,0-.1V30.68a11.16,11.16,0,0,0-.16-2.23c0-.1-.3-.22-.74-.33a4.26,4.26,0,0,0-1-.16c-.08,0-.12-.11-.12-.32s0-.36.12-.41h1.48c.66,0,1.24.06,1.61.06s1,0,1.58-.06h1.37a1,1,0,0,1,0,.34c0,.26,0,.39-.1.39a4.2,4.2,0,0,0-.94.16c-.45.11-.7.22-.73.33a9.62,9.62,0,0,0-.2,2.33v9.48a9.62,9.62,0,0,0,.2,2.33c0,.11.28.22.73.33a4.2,4.2,0,0,0,.94.16.65.65,0,0,1,.1.38,2.16,2.16,0,0,1,0,.36c-1.71-.09-2.69-.13-3-.13l-3.09.13a.67.67,0,0,1-.12-.43c0-.19,0-.31.12-.31a4.92,4.92,0,0,0,1-.14c.44-.1.68-.21.73-.35A10.39,10.39,0,0,0,82.78,40.36Z"/><path class="cls-1" d="M90.93,41.51a8.66,8.66,0,0,1,0-11.94,8,8,0,0,1,11.25-.31c.11.1.21.2.31.31a8.66,8.66,0,0,1,0,11.94,8,8,0,0,1-11.29.28Zm5.4-13.38a4.44,4.44,0,0,0-3.85,2.07A8.38,8.38,0,0,0,91,35a10.72,10.72,0,0,0,.66,3.72,6.92,6.92,0,0,0,2.08,3,4.91,4.91,0,0,0,3.3,1.24,4.22,4.22,0,0,0,2.86-1,6.19,6.19,0,0,0,1.81-2.56,9.24,9.24,0,0,0,.58-3.29,10.51,10.51,0,0,0-.67-3.72,7,7,0,0,0-2.08-2.94A4.94,4.94,0,0,0,96.33,28.13Z"/><path class="cls-1" d="M109,40.16V30.73a9.14,9.14,0,0,0-.17-2.15c0-.14-.31-.26-.75-.37a4.55,4.55,0,0,0-1-.18.43.43,0,0,1-.1-.29.74.74,0,0,1,.1-.44h6.66a8.78,8.78,0,0,1,1.35.11,6.84,6.84,0,0,1,1.42.42,5.07,5.07,0,0,1,1.24.75,3.08,3.08,0,0,1,.93,1.24,3.8,3.8,0,0,1,.36,1.63,2.61,2.61,0,0,1-.6,1.67,4,4,0,0,1-1.09,1.08,4.2,4.2,0,0,1-.85.42c-.14,0-.17.1-.12.15a5.28,5.28,0,0,1,2.37,1.41,3.74,3.74,0,0,1,1.39,2.91,4,4,0,0,1-1.78,3.41,8,8,0,0,1-4.72,1.24h-3.51l-3.1.08a.65.65,0,0,1-.07-.41c0-.21,0-.33.07-.33a4.11,4.11,0,0,0,1-.17,1.22,1.22,0,0,0,.78-.39A8.15,8.15,0,0,0,109,40.16Zm5.35-5.81a3,3,0,0,0,1.76-.71,2.08,2.08,0,0,0,.71-1.63,3.9,3.9,0,0,0-.88-2.69,3.47,3.47,0,0,0-2.63-1,8,8,0,0,0-1.82.18.21.21,0,0,0-.16.22l-.1,2.48v3c0,.11.57.17,1.7.17a13.46,13.46,0,0,0,1.42,0Zm3.38,4.95a3.69,3.69,0,0,0-1.1-2.74,4.58,4.58,0,0,0-3.45-1.14,14.89,14.89,0,0,0-1.85.1,2.9,2.9,0,0,0-.1.83V40c0,1.26.14,2,.41,2.23a2.13,2.13,0,0,0,1.39.34,8.62,8.62,0,0,0,1.24-.09,10.24,10.24,0,0,0,1.52-.38,2.81,2.81,0,0,0,1.41-1,2.89,2.89,0,0,0,.53-1.75Z"/><path class="cls-1" d="M124.72,41.51a8.66,8.66,0,0,1,0-11.94A8,8,0,0,1,136,29.25l.31.32a8.59,8.59,0,0,1,0,11.94,8,8,0,0,1-11.27.28Zm5.39-13.38a4.42,4.42,0,0,0-3.84,2.07,8.35,8.35,0,0,0-1.41,4.8,10.51,10.51,0,0,0,.67,3.72,7.09,7.09,0,0,0,2.06,3,4.93,4.93,0,0,0,3.31,1.24,4.27,4.27,0,0,0,2.87-1,6.17,6.17,0,0,0,1.83-2.56,9.27,9.27,0,0,0,.57-3.29,10.29,10.29,0,0,0-.67-3.72,7,7,0,0,0-2.06-2.94,4.93,4.93,0,0,0-3.33-1.23Z"/><path class="cls-1" d="M141.32,38.49c0-.85.1-1.24.31-1.24h0l6.19-.29h0c.1,0,.16.07.16.22a3.33,3.33,0,0,1-.1.89,1,1,0,0,1-.16.41h-.07l-6.19.27h0l-.08-.07A.33.33,0,0,1,141.32,38.49Z"/><path class="cls-1" d="M162.41,40.36V35.87H158.7a24.8,24.8,0,0,0-3.95.12v4.32a10.16,10.16,0,0,0,.21,2.33c0,.11.28.22.73.33a4.32,4.32,0,0,0,.93.16.47.47,0,0,1,.09.3,1,1,0,0,1,0,.43c-1.71-.08-2.7-.12-3-.12l-3.07.12a.62.62,0,0,1-.1-.38c0-.22,0-.35.1-.35a4.92,4.92,0,0,0,1-.14c.43-.1.68-.21.73-.35a10.43,10.43,0,0,0,.17-2.23V30.68a11.12,11.12,0,0,0-.17-2.23c0-.1-.3-.22-.74-.33a4.34,4.34,0,0,0-1-.16.61.61,0,0,1-.1-.35c0-.22,0-.34.1-.38h1.49c.64,0,1.17.06,1.58.06s1,0,1.62-.06h1.38a1,1,0,0,1,0,.42c0,.2,0,.31-.09.31a4.32,4.32,0,0,0-.93.16c-.45.11-.7.22-.73.33a10.16,10.16,0,0,0-.21,2.33v3.79h7.64a.17.17,0,0,0,0-.1V30.68a11.16,11.16,0,0,0-.16-2.23c0-.1-.3-.22-.74-.33a4.26,4.26,0,0,0-1-.16c-.08,0-.12-.11-.12-.32s0-.36.12-.41H162c.66,0,1.18.06,1.61.06s.95,0,1.59-.06h1.36a1,1,0,0,1,0,.34c0,.26,0,.39-.1.39a4.2,4.2,0,0,0-.94.16c-.45.11-.7.22-.73.33a9.62,9.62,0,0,0-.2,2.33v9.48a9.62,9.62,0,0,0,.2,2.33c0,.11.28.22.73.33a4.2,4.2,0,0,0,.94.16c.06,0,.1.13.1.38a2.16,2.16,0,0,1,0,.36c-1.71-.09-2.69-.13-2.95-.13l-3.09.13a.67.67,0,0,1-.12-.43c0-.19,0-.31.12-.31a4.92,4.92,0,0,0,1-.14c.44-.1.68-.21.73-.35A10.39,10.39,0,0,0,162.41,40.36Z"/><path class="cls-1" d="M172.47,43.46v.36c-1.09-.08-1.69-.1-1.76-.1h-2.49a.73.73,0,0,1,0-.36c0-.25,0-.37.1-.37a5,5,0,0,0,.94-.17q.68-.16.72-.33a9.11,9.11,0,0,0,.21-2.33V30.78a9.16,9.16,0,0,0-.21-2.33c0-.11-.27-.22-.72-.33a4.3,4.3,0,0,0-.94-.16.67.67,0,0,1-.1-.39,1,1,0,0,1,0-.34c1.71.08,2.7.12,3,.12l3.07-.12a.52.52,0,0,1,.09.38c0,.22,0,.35-.09.35a4.33,4.33,0,0,0-1,.15c-.43.1-.67.21-.73.34a9.82,9.82,0,0,0-.17,2.23v8.94a12.91,12.91,0,0,1-.1,1.79l7.42-13a1.82,1.82,0,0,0,.29-.69v-.51c1.09.07,1.7.1,1.82.1h2.49a1,1,0,0,1,0,.34c0,.26,0,.39-.11.39a4.11,4.11,0,0,0-.93.16c-.46.11-.7.22-.73.33a9.62,9.62,0,0,0-.2,2.33v9.48a9.62,9.62,0,0,0,.2,2.33c0,.11.27.22.73.33a4.11,4.11,0,0,0,.93.16c.07,0,.11.13.11.38a2,2,0,0,1,0,.35q-2.56-.12-3-.12l-3.07.12a.55.55,0,0,1-.11-.38c0-.22,0-.35.11-.35a4.73,4.73,0,0,0,1-.14c.44-.1.69-.22.73-.35a8.78,8.78,0,0,0,.19-2.23v-9a10.7,10.7,0,0,1,.06-1.23,4.06,4.06,0,0,0,0-.92h0l-7.46,13.22A1.84,1.84,0,0,0,172.47,43.46Z"/><path class="cls-1" d="M203,43.82h-2.19a4.16,4.16,0,0,1-3.71-2c-.16-.24-.51-.81-1-1.69l-1.12-1.94a4.25,4.25,0,0,0-1.48-1.77,4.15,4.15,0,0,0-2-.56h-.62c-.12,0-.17,0-.17.2v4.29a8.69,8.69,0,0,0,.22,2.33c0,.11.27.22.72.33a4.11,4.11,0,0,0,.93.16.61.61,0,0,1,.08.3,1.55,1.55,0,0,1,0,.43c-1.71-.08-2.71-.12-3-.12l-3.05.12a.55.55,0,0,1-.11-.38c0-.22,0-.35.11-.35a4.63,4.63,0,0,0,1-.14c.43-.1.68-.22.73-.35a9.79,9.79,0,0,0,.19-2.23V30.68a9.84,9.84,0,0,0-.19-2.23c-.05-.1-.3-.22-.74-.33a4.57,4.57,0,0,0-1-.16c-.07,0-.11-.13-.11-.35s0-.34.11-.38h1.48c.64,0,1.16.06,1.57.06s1,0,1.61-.06h1.28a1.48,1.48,0,0,1,0,.42c0,.2,0,.31-.08.31a4.76,4.76,0,0,0-.93.16c-.45.11-.68.22-.72.34a9,9,0,0,0-.22,2.32v3.72c0,.13,0,.19.17.19H191a1.55,1.55,0,0,0,.43,0,3.83,3.83,0,0,0,1.24-.27,3.65,3.65,0,0,0,.89-.67,1.52,1.52,0,0,0,.33-.34,3,3,0,0,0,.33-.46l.28-.46c.07-.12.17-.32.31-.61l.28-.63c.08-.15.2-.42.36-.8l.39-.84a3.85,3.85,0,0,1,3.4-2.65,1.73,1.73,0,0,1,1,.28.86.86,0,0,1,.38.72.61.61,0,0,1-.33.51,1.23,1.23,0,0,1-.74.21H199a1.77,1.77,0,0,0-1.4.67,13.58,13.58,0,0,0-1.52,2.57A9.54,9.54,0,0,1,194.72,34a5.75,5.75,0,0,1-1.15,1v.07a6,6,0,0,1,3.71,2.37c.09.15.38.68.85,1.57s.9,1.65,1.23,2.23a5.29,5.29,0,0,0,.77.93,2.5,2.5,0,0,0,.92.5,5,5,0,0,0,.78.2l1,.11a.5.5,0,0,1,.1.32A1.3,1.3,0,0,1,203,43.82Z"/><path class="cls-1" d="M206.94,41.51a8.66,8.66,0,0,1,0-11.94,8,8,0,0,1,11.23-.32c.11.1.22.21.32.32a8.59,8.59,0,0,1,0,11.94,8,8,0,0,1-11.27.28Zm5.41-13.38a4.43,4.43,0,0,0-3.84,2.07A8.35,8.35,0,0,0,207.1,35a10.73,10.73,0,0,0,.67,3.72,7,7,0,0,0,2.1,3A4.93,4.93,0,0,0,213.18,43a4.37,4.37,0,0,0,2.87-1,6.23,6.23,0,0,0,1.8-2.56,9.46,9.46,0,0,0,.58-3.29,10.73,10.73,0,0,0-.67-3.72,7.18,7.18,0,0,0-2.07-2.94A5,5,0,0,0,212.35,28.13Z"/><path class="cls-1" d="M233.21,30.71a15.48,15.48,0,0,0-.1-2.26c-.1-.13-.4-.19-.87-.19h-2.66a1.89,1.89,0,0,0-.94.12c-.11.09-.16.3-.16.62,0,7-.88,11.63-2.61,13.89-.67.83-1.24,1.23-1.85,1.23a4.31,4.31,0,0,1-1.63-.24v-.49a7.57,7.57,0,0,0,2.68-2.74,16.65,16.65,0,0,0,1.55-4.48,31,31,0,0,0,.62-6.58v-.75a.69.69,0,0,0-.38-.52,4.82,4.82,0,0,0-2-.35.6.6,0,0,1-.1-.37.73.73,0,0,1,0-.36h12.53a1.09,1.09,0,0,1,0,.36c0,.25,0,.37-.1.37a4.76,4.76,0,0,0-.93.16c-.46.11-.71.22-.73.34a10,10,0,0,0-.21,2.32V40.86a6.24,6.24,0,0,0,.21,1.72c0,.11.27.22.73.33a4.11,4.11,0,0,0,.93.16c.07,0,.1.13.1.37a1.09,1.09,0,0,1,0,.36L236,43.73h-3.48l-1.34.07a.64.64,0,0,1-.1-.38c0-.22,0-.35.1-.35a4.33,4.33,0,0,0,1-.15c.43-.1.68-.21.73-.34a9.82,9.82,0,0,0,.17-2.23Z"/><path class="cls-1" d="M243.83,30.78v3.49a28.08,28.08,0,0,1,3.18-.1,6.74,6.74,0,0,1,4.05,1.49,4.13,4.13,0,0,1,1,5.74,4.49,4.49,0,0,1-1,1,7.76,7.76,0,0,1-4.7,1.32h-3.52l-3.09.08a.73.73,0,0,1-.07-.41c0-.21,0-.33.07-.33a4.27,4.27,0,0,0,1-.17,1.22,1.22,0,0,0,.77-.39,7.5,7.5,0,0,0,.19-2.36V30.68a9.3,9.3,0,0,0-.19-2.23c0-.1-.29-.22-.74-.33a4.18,4.18,0,0,0-1-.16c-.06,0-.1-.13-.1-.35s0-.34.1-.38h1.48c.65,0,1.18.06,1.6.06s.95,0,1.61-.06a10.32,10.32,0,0,1,1.39,0,1.48,1.48,0,0,1,0,.42c0,.2,0,.31-.1.31a4.11,4.11,0,0,0-.93.16c-.46.11-.69.22-.73.33A10.22,10.22,0,0,0,243.83,30.78Zm0,5.36v4c0,1.15.15,1.85.44,2.08a2.1,2.1,0,0,0,1.38.34h1a6.51,6.51,0,0,0,1.24-.26,5.13,5.13,0,0,0,1.24-.56,3.1,3.1,0,0,0,.93-1,3,3,0,0,0,.38-1.52,4,4,0,0,0-1.1-2.8,4.56,4.56,0,0,0-3.46-1.24,15.37,15.37,0,0,0-1.86.1,2.32,2.32,0,0,0-.18.82Z"/><path class="cls-1" d="M269.92,39.16a15.47,15.47,0,0,1-.36,1.92,4.92,4.92,0,0,1-.52,1.71,12.58,12.58,0,0,1-6.11,1.1,7.75,7.75,0,0,1-5.75-2.48,7.94,7.94,0,0,1-2.36-5.76,8.44,8.44,0,0,1,2.47-6.08,8,8,0,0,1,6-2.54,32.18,32.18,0,0,1,6.19.63v3.59c0,.16-.17.37-.53.37-.18,0-.29,0-.34-.12a5.46,5.46,0,0,0-.19-.66,4.21,4.21,0,0,0-.49-.88,3.66,3.66,0,0,0-.89-.91,4.85,4.85,0,0,0-1.48-.68,7.62,7.62,0,0,0-2.17-.29,5.38,5.38,0,0,0-4.27,2.16,7.52,7.52,0,0,0-1.77,4.89,9.29,9.29,0,0,0,.72,3.71,6.41,6.41,0,0,0,2.26,2.81A6.1,6.1,0,0,0,264,42.76a5.12,5.12,0,0,0,3.91-1.45,3.63,3.63,0,0,0,.63-1c.17-.4.31-.74.41-1s.16-.42.21-.42h.37l.35.1Z"/><path class="cls-1" d="M288.07,43.82h-2.21a4.15,4.15,0,0,1-3.71-2c-.17-.24-.51-.81-1-1.69s-.87-1.54-1.12-1.94a3.7,3.7,0,0,0-3.45-2.33H276c-.12,0-.18,0-.18.2v4.29a8,8,0,0,0,.23,2.33c0,.11.27.22.72.33a4,4,0,0,0,.92.16.5.5,0,0,1,.08.3,1,1,0,0,1,0,.43c-1.71-.08-2.7-.12-3-.12l-3.05.12a.62.62,0,0,1-.1-.38c0-.22,0-.35.1-.35a4.63,4.63,0,0,0,1-.14c.43-.1.68-.22.73-.35a9.82,9.82,0,0,0,.17-2.23V30.68a9.82,9.82,0,0,0-.17-2.23c-.05-.1-.3-.22-.74-.33a4.66,4.66,0,0,0-1-.16c-.06,0-.1-.13-.1-.35s0-.34.1-.38h1.47c.65,0,1.17.06,1.58.06s1,0,1.61-.06h1.38a1,1,0,0,1,0,.42c0,.2,0,.31-.09.31a4,4,0,0,0-.91.16q-.68.16-.72.33a8.7,8.7,0,0,0-.23,2.33v3.71c0,.14.06.2.18.2h.17a1.62,1.62,0,0,0,.44,0,3.83,3.83,0,0,0,1.24-.27,3.9,3.9,0,0,0,.9-.67,2.2,2.2,0,0,0,.33-.35,3.72,3.72,0,0,0,.33-.45l.27-.46a4.37,4.37,0,0,0,.31-.61l.29-.63.36-.8.39-.85a3.83,3.83,0,0,1,3.4-2.64,1.73,1.73,0,0,1,1,.28.91.91,0,0,1,.39.72.6.6,0,0,1-.34.51,1.3,1.3,0,0,1-.74.21h-.55a1.72,1.72,0,0,0-1.38.66,13.19,13.19,0,0,0-1.53,2.58,9.24,9.24,0,0,1-1.33,2A5.51,5.51,0,0,1,278.75,35v.07a6.1,6.1,0,0,1,3.71,2.36c.09.15.36.69.84,1.58s.91,1.64,1.24,2.23a5.61,5.61,0,0,0,.77.92,2.49,2.49,0,0,0,.93.51,6.36,6.36,0,0,0,.78.2l1,.11c.08,0,.11.11.11.32A1.62,1.62,0,0,1,288.07,43.82Z"/><path class="cls-1" d="M292,41.51a8.66,8.66,0,0,1,0-11.94,8,8,0,0,1,11.25-.31l.31.31a8.64,8.64,0,0,1,0,11.94,8,8,0,0,1-11.29.28Zm5.39-13.38a4.42,4.42,0,0,0-3.84,2.07,8.29,8.29,0,0,0-1.4,4.8,10.5,10.5,0,0,0,.66,3.72,6.92,6.92,0,0,0,2.08,3,4.89,4.89,0,0,0,3.3,1.24,4.22,4.22,0,0,0,2.86-1,6.28,6.28,0,0,0,1.81-2.56,9.49,9.49,0,0,0,.57-3.29,10.72,10.72,0,0,0-.66-3.72,7,7,0,0,0-2.08-2.94A5,5,0,0,0,297.43,28.13Z"/><path class="cls-1" d="M311.05,27.35c.77,0,2.1,0,4-.08s3.32-.09,4.28-.09c.07.48.2,1.12.38,1.94s.31,1.24.34,1.44a.67.67,0,0,1-.43.12c-.23,0-.34-.06-.36-.18a2.76,2.76,0,0,0-1.08-1.76,3.87,3.87,0,0,0-1.83-.39h-1.71c-1.47,0-2.22.12-2.25.33a9.25,9.25,0,0,0-.16,2.1v4c0,.1.37.16,1.1.16h2.47a2.61,2.61,0,0,0,.68-.11l.46-.13c.06,0,.16-.12.26-.32a1.69,1.69,0,0,0,.2-.43,5,5,0,0,1,.17-.72c0-.11.14-.17.36-.17a.71.71,0,0,1,.47.12V37.9a.75.75,0,0,1-.44.1.43.43,0,0,1-.39-.19,9.27,9.27,0,0,0-.29-1,1.33,1.33,0,0,0-.21-.39l-.23-.18a9.39,9.39,0,0,0-2.7-.19c-1.23,0-1.86.07-1.86.22v3.87a6.75,6.75,0,0,0,.25,2.28c0,.16.64.25,1.75.25h1.24a8.64,8.64,0,0,0,3.23-.42,4.28,4.28,0,0,0,1.61-2.48c0-.1.15-.15.36-.15a.9.9,0,0,1,.6.15c-.1.3-.26.76-.49,1.36s-.42,1.14-.57,1.6a6.62,6.62,0,0,0-.31,1.24H311.2l-3.08.07a.63.63,0,0,1-.07-.41c0-.21,0-.32.07-.32a4.66,4.66,0,0,0,1-.17,1.19,1.19,0,0,0,.78-.4,7.43,7.43,0,0,0,.19-2.35V30.73a9.15,9.15,0,0,0-.19-2.15c0-.11-.31-.24-.77-.35a4.75,4.75,0,0,0-1-.17.5.5,0,0,1-.1-.32.74.74,0,0,1,.1-.44C308.9,27.34,309.9,27.35,311.05,27.35Z"/><ellipse class="cls-1" cx="5.36" cy="40.36" rx="0.46" ry="0.48" transform="translate(-18.51 7.38) rotate(-28.33)"/><path class="cls-1" d="M5.21,40.45a4.7,4.7,0,0,1,1,1c.4.57.85,1.11.85,1.11L7,41.8a7.59,7.59,0,0,0-.93-1,8,8,0,0,0-.64-.54Z"/><path class="cls-1" d="M32.86,62.44a23.67,23.67,0,0,0-2.71-.86c-.86-.24-1.78-.52-2.91-.86-8-2.58-10.94-4.54-13-6.3a18.4,18.4,0,0,1-2.49-2.8l-.39-.53-.07-.1-.46-.68-.41-.66-.26-.41v-.06c-.21-.35-.41-.71-.61-1.09l-.13-.23c-.11-.21-.23-.43-.33-.65A22.19,22.19,0,0,1,7.83,43.9a19,19,0,0,1-.71-3.49A19.24,19.24,0,0,1,7,36.85a23.34,23.34,0,0,1,1.33-7,35.42,35.42,0,0,1,3.09-6.67c-.65.86-.5-.26-1,.69C9.78,25,8.25,28.33,7.77,29.61l-.3.86c-.1.3-.17.59-.27.86-.18.59-.31,1.19-.45,1.79a2.42,2.42,0,0,0-.1.45L6.56,34c0,.3-.12.6-.16.9l-.11.92c0,.31-.08.61-.1.92a20,20,0,0,0,.67,7.38c.07.3.18.6.26.86s.2.59.32.86c.22.58.47,1.15.73,1.72.05.1.11.2.16.32s.17.38.29.61A22,22,0,0,0,10,50.81h0a22.89,22.89,0,0,0,3.6,4.31C15.71,57,18.8,59,27,61.62c1.14.36,2.09.64,2.93.86a25.17,25.17,0,0,1,2.58.86c1,.45,2.71,1.32,2.73,1.33l.48-.85C35.59,63.79,34,62.93,32.86,62.44Z"/><path class="cls-1" d="M13,54.57l-.08-.17a2.09,2.09,0,0,0-2.41-.08,5.11,5.11,0,0,1-4.93.17,12.53,12.53,0,0,1-2.44-1.26c2.25-2,4.57-2.12,6.89-.39a2.63,2.63,0,0,0,2.09.68c-.65-.86-2-2.83-2.2-3.06a.85.85,0,0,0-1.14-.18c-2.23,1.14-4,.14-5.83-.94-.36-.2-.7-.44-1-.66a4.63,4.63,0,0,1,6,.23c.37.34,1,1.05,1.52.64.3-.22-.5-.91-.77-1.28a2.65,2.65,0,0,0-2.27-1.16,4.84,4.84,0,0,1-4.31-1.67A5.17,5.17,0,0,0,.34,44.28C2,44.13,3.42,43.71,4.88,44c1.64.35,2,2.12,3.1,3.09C7.77,44.83,6.69,43,4.16,43.06a2.63,2.63,0,0,1-2.48-1.27C1.15,41,.56,40.27,0,39.5H0c1.72.27,3.59.21,4.92,1.72l.15.19a4.82,4.82,0,0,0,1.72,2.07s.11.12.12.11a.23.23,0,0,0,0-.22,5.23,5.23,0,0,0-1.07-3.09c-1.14-.86-2.65-.86-3.44-2.08A12.79,12.79,0,0,1,.82,34.66c2.48.28,3.59,1.21,4.2,3.51A2.49,2.49,0,0,0,6.28,39.9c.13-1.26.22-2.47-.86-3.25-1.88-1.3-2.35-3.25-2.68-5.31a8.36,8.36,0,0,0-.09-.86C5.23,31.69,6.09,34.34,6.31,37c.42-1.77.4-3.38-.86-4.74a3.16,3.16,0,0,1-.81-3.12,10.78,10.78,0,0,0,.28-2.53,13,13,0,0,1,1.9,3.07,6.67,6.67,0,0,1-.13,2.67,12.2,12.2,0,0,0,.07,1.91c.36-1.48,1.52-3.82.44-5.37C6,27.06,6,24.93,6.91,22.23A11.51,11.51,0,0,1,8.38,25.6c.21,1.22-.55,2.83-.52,4.07a33,33,0,0,1,1.88-4.2,3.79,3.79,0,0,0,.52-1.72,3.36,3.36,0,0,1,1.91-3.06c.7-.39,1.35-.57,2.17-1a14.28,14.28,0,0,1-.06,1.66c-.71-.07-.52.24-.47.86s-.17.64-.19,1.13a4.88,4.88,0,0,1-1.72.86c-.14.05-.9.23-1,.29-1,.51-1.5,1.81-1.91,3a16.16,16.16,0,0,0,2.28-2,3.7,3.7,0,0,1,2.15-1v2.84a12.79,12.79,0,0,1-3.69.41,1.35,1.35,0,0,0-.87.28c-.62.35-2,5.42-1.88,6.89A3.24,3.24,0,0,0,8.2,33.18a4.1,4.1,0,0,1,2.65-3.09c.52-.2,1-.43,1.56-.65l.11.11c-.46,2-1.28,3.63-3.31,4.42a4.29,4.29,0,0,0-2.13,1.54,4.87,4.87,0,0,0-.23,3.58,11.26,11.26,0,0,0,1-2.1A3.8,3.8,0,0,1,9,34.91a17.39,17.39,0,0,1,3.79-1.82c-.69,2.49-1.85,4.37-4.2,5.28a6.45,6.45,0,0,0-1.11.73,1.76,1.76,0,0,0-.71,1.27c.14.86.42,1.72.58,2.71A6.73,6.73,0,0,0,8,42.15a2.28,2.28,0,0,0,.23-.68,4.42,4.42,0,0,1,.86-2.25,23.39,23.39,0,0,1,2.76-2.4s-.06.67-.09.86c-.18,1.68-.51,3.38-1.72,4.1a14.15,14.15,0,0,1-1.49.79c-1.3.78-.86,1.72-.76,2.34a8.05,8.05,0,0,0,.81,1.57c.92-1.09.57-2.42,1.35-3.33a7.26,7.26,0,0,1,2.82-2.08c.13,2.9-.5,3.93-3,5.08-.66.3-1,.72-.55,1.45.17.26.86,2.32,1.43,2.36s.66-.76.7-1.34a3.91,3.91,0,0,1,2-3.27c.12,1.33.23,2.68.33,4a4.76,4.76,0,0,1-1.61.44c-1,.13-1.29.7-.73,1.52.34.49.69,1,1.05,1.43.12.15.22.42.46.34a.56.56,0,0,0,.31-.59,3,3,0,0,1,.76-2l1,2.68c-.57.08-1.42-.17-1.6.37s.69.76,1.07,1.15a5.81,5.81,0,0,1,1,.94c.18.29.74,1.39,1.07.68.42.43.64.32,1.13.71,1,.75,1.91,1.3,2.91,2-.76.2-.44.72-.26,1.09.86,1.83.59,2.58-.48,3.55-.49.51-1,.86-1.54,1.5-.43-.95-.86-1.79-1.18-2.67a1.6,1.6,0,0,1,.68-1.94c.5-.41,1.09-.71,1.6-1.12s.42-.55-.13-.86a1.14,1.14,0,0,0-1.59.23,1,1,0,0,0-.13.23,3.87,3.87,0,0,0-.5.86C16.3,62,15,62.44,12.85,62.44c-.18,0-2-.16-2-.16a11.58,11.58,0,0,1,.65-1.49,3.68,3.68,0,0,1,4.3-2.19,1.64,1.64,0,0,0,1.44-.22c.14-.12.44-.21.33-.44s-.16-.41-.35-.46c-.53-.15-.34-.38-1.15-.58a1.79,1.79,0,0,0-1.54.24c-2.48,2.58-5.16,1.32-8,.42A8.19,8.19,0,0,1,10,55.37a4.59,4.59,0,0,1,2.81.23c.69.36,1.28,1,2.21.76A15.76,15.76,0,0,0,13,54.57Z"/><ellipse class="cls-1" cx="8.79" cy="24" rx="0.46" ry="0.48"/><path class="cls-1" d="M8.62,24A4.77,4.77,0,0,1,9,25.38c.08.7.19,1.38.19,1.38L9.49,26a7.42,7.42,0,0,0-.34-1.37,5.88,5.88,0,0,0-.31-.79Z"/><ellipse class="cls-1" cx="9.16" cy="51.29" rx="0.46" ry="0.48" transform="translate(-39.61 32.94) rotate(-59.26)"/><path class="cls-1" d="M9.07,51.42a5,5,0,0,1,1.36.4c.64.29,1.28.54,1.28.54l-.46-.64A7.83,7.83,0,0,0,9.9,51.3c-.68-.12-.86-.13-.86-.13Z"/><ellipse class="cls-1" cx="11.6" cy="54.62" rx="0.46" ry="0.48" transform="matrix(0.26, -0.97, 0.97, 0.26, -44.16, 51.72)"/><path class="cls-1" d="M11.58,54.78a4.83,4.83,0,0,1,1.42,0c.7.1,1.38.16,1.38.16l-.61-.49a8.42,8.42,0,0,0-1.42,0,6.13,6.13,0,0,0-.86.11Z"/><ellipse class="cls-2" cx="15.1" cy="57.75" rx="0.46" ry="0.48" transform="translate(-42.84 72.06) rotate(-89.22)"/><path class="cls-2" d="M15.1,57.93a4.72,4.72,0,0,1,1.39-.34c.69-.07,1.37-.18,1.37-.18l-.71-.32a8.22,8.22,0,0,0-1.39.31,7.61,7.61,0,0,0-.79.31Z"/><ellipse class="cls-1" cx="9.97" cy="28.9" rx="0.48" ry="0.46" transform="translate(-16.75 14.06) rotate(-41.92)"/><path class="cls-1" d="M10.08,29a5.37,5.37,0,0,0-1.26.65c-.57.41-1.15.78-1.15.78L8,29.73a8.85,8.85,0,0,1,1.25-.67,7.64,7.64,0,0,1,.8-.29Z"/><ellipse class="cls-1" cx="8.59" cy="43.32" rx="0.46" ry="0.48" transform="matrix(1, -0.05, 0.05, 1, -2.2, 0.5)"/><path class="cls-1" d="M8.75,43.31a4.77,4.77,0,0,0-.28,1.4c-.05.7-.12,1.38-.12,1.38L8,45.38A8.21,8.21,0,0,1,8.26,44a6.41,6.41,0,0,1,.27-.81Z"/><ellipse class="cls-1" cx="10.13" cy="46.81" rx="0.46" ry="0.48" transform="translate(-2.38 0.58) rotate(-2.93)"/><path class="cls-1" d="M10.3,46.8A5.13,5.13,0,0,0,10,48.2c0,.7-.12,1.38-.12,1.38l-.36-.71a8.32,8.32,0,0,1,.27-1.39,5.79,5.79,0,0,1,.27-.8Z"/><ellipse class="cls-2" cx="14.73" cy="53.86" rx="0.46" ry="0.48" transform="translate(-24.69 14.31) rotate(-29.61)"/><path class="cls-2" d="M14.88,53.78a4.72,4.72,0,0,0,.37,1.37c.27.65.51,1.3.51,1.3L15.13,56a8.5,8.5,0,0,1-.39-1.37,6.35,6.35,0,0,1-.12-.86Z"/><ellipse class="cls-2" cx="16.58" cy="53.95" rx="0.46" ry="0.48" transform="translate(-3.73 1.29) rotate(-4.01)"/><path class="cls-2" d="M16.74,53.93a5.1,5.1,0,0,0-.26,1.4,11.08,11.08,0,0,1-.1,1.39L16,56a10.62,10.62,0,0,1,.24-1.39,7,7,0,0,1,.26-.81Z"/><path class="cls-1" d="M28.94,62.44a23.83,23.83,0,0,1,2.72-.86c.86-.24,1.78-.52,2.9-.86,8-2.58,11-4.54,13-6.3A18.34,18.34,0,0,0,50,51.62c.13-.18.27-.35.39-.53a.61.61,0,0,0,.07-.1l.46-.68.42-.66.25-.41v-.06c.21-.35.42-.71.62-1.09l.12-.23c.12-.21.23-.43.33-.65A21.15,21.15,0,0,0,54,43.9a19.87,19.87,0,0,0,.73-3.49,22.26,22.26,0,0,0,.08-3.56,23.66,23.66,0,0,0-1.34-7,34.81,34.81,0,0,0-3.09-6.67c.65.86.5-.26,1,.69C52,25,53.56,28.33,54,29.61l.3.86c.1.3.18.59.27.86.18.59.31,1.19.46,1.79a3.58,3.58,0,0,1,.09.45l.09.46c0,.3.12.6.16.9l.11.92c.05.31.08.61.1.92A20.2,20.2,0,0,1,55,44.15c-.08.3-.18.6-.27.86s-.2.59-.32.86c-.21.58-.46,1.15-.72,1.72l-.17.32c0,.11-.17.38-.29.61a16.7,16.7,0,0,1-1.37,2.29h0a22.16,22.16,0,0,1-3.6,4.31C46.09,57,43.05,59,34.86,61.62c-1.15.36-2.1.64-2.94.86a26,26,0,0,0-2.58.86c-1,.45-2.71,1.32-2.73,1.33l-.49-1A24.36,24.36,0,0,0,28.94,62.44Z"/><path class="cls-1" d="M46.74,56.42c.93.25,1.51-.41,2.21-.77a4.63,4.63,0,0,1,2.8-.23,8.22,8.22,0,0,1,3.45,2.19c-2.82.86-5.49,2.14-8-.42A1.79,1.79,0,0,0,45.7,57c-.81.21-.61.43-1.16.58-.18.06-.28.3-.35.46s.2.32.34.44a1.59,1.59,0,0,0,1.43.22,3.68,3.68,0,0,1,4.3,2.19,13.22,13.22,0,0,1,.66,1.49s-1.86.16-2,.16c-2.17,0-3.44-.48-4.1-2.58a3.87,3.87,0,0,0-.5-.86,1.14,1.14,0,0,0-1.5-.59l-.22.13c-.55.27-.51.53-.13.86s1.09.72,1.6,1.12a1.63,1.63,0,0,1,.68,2c-.35.86-.76,1.72-1.18,2.66-.55-.61-1.05-1-1.54-1.49-1.08-1-1.35-1.73-.48-3.56.18-.37.5-.86-.27-1.09,1-.69,2-1.24,2.92-2,.5-.39.71-.27,1.12-.7.33.7.86-.4,1.08-.69a6.62,6.62,0,0,1,1-1c.38-.38,1.22-.74,1.07-1.15s-1-.28-1.59-.37l1-2.67a3,3,0,0,1,.73,2,.56.56,0,0,0,.3.59c.25.08.34-.18.46-.34.37-.46.72-.93,1-1.43.56-.86.31-1.39-.73-1.52a4.83,4.83,0,0,1-1.61-.44l.33-4a3.93,3.93,0,0,1,2,3.28c0,.58.21,1.39.7,1.34s1.26-2.1,1.43-2.35c.46-.74.11-1.16-.56-1.46-2.49-1.15-3.12-2.18-3-5.08a7.34,7.34,0,0,1,2.82,2.08c.78.91.42,2.25,1.35,3.33A7.78,7.78,0,0,0,54,45c.09-.6.54-1.56-.76-2.34a12,12,0,0,1-1.49-.83c-1.2-.72-1.53-2.42-1.72-4.1,0-.2-.09-.86-.09-.86a23.39,23.39,0,0,1,2.76,2.4,4.42,4.42,0,0,1,.86,2.25,2.28,2.28,0,0,0,.23.68,6.73,6.73,0,0,0,.65.93c.16-1,.44-1.84.58-2.71a1.77,1.77,0,0,0-.71-1.27,6.77,6.77,0,0,0-1.1-.73c-2.36-.91-3.52-2.79-4.21-5.28a17.35,17.35,0,0,1,3.79,1.81,3.7,3.7,0,0,1,1.17,2,12.3,12.3,0,0,0,1,2.1,4.78,4.78,0,0,0-.23-3.58,4.28,4.28,0,0,0-2.12-1.58c-2-.79-2.86-2.45-3.32-4.41l.16-.08c.52.21,1,.45,1.56.64a4.11,4.11,0,0,1,2.6,3.14,3.25,3.25,0,0,0,1.25,1.73c.08-1.46-1.26-6.54-1.89-6.89a1.35,1.35,0,0,0-.86-.28,12.71,12.71,0,0,1-3.69-.41V24.49a3.67,3.67,0,0,1,2.14,1,16.71,16.71,0,0,0,2.33,2.12c-.4-1.15-1-2.45-1.91-2.95-.12-.06-.86-.24-1-.3a4.8,4.8,0,0,1-1.72-.86c0-.49-.24-.65-.19-1.13.05-.65.24-.95-.48-.86,0-.42,0-1.1-.06-1.66.86.44,1.47.62,2.17,1a3.36,3.36,0,0,1,1.92,3.06,3.6,3.6,0,0,0,.52,1.72A33.62,33.62,0,0,1,54,29.78c0-1.23-.73-2.85-.52-4.07a11.25,11.25,0,0,1,1.47-3.37c.86,2.7,1,4.83-.3,6.64-1.07,1.54.08,3.89.44,5.36a12.39,12.39,0,0,0,0-2A6.59,6.59,0,0,1,55,29.63a13.84,13.84,0,0,1,1.94-3.17A10.37,10.37,0,0,0,57.18,29a3.16,3.16,0,0,1-.81,3.12c-1.24,1.36-1.26,3-.86,4.75.19-2.64,1-5.29,3.66-6.49a5.41,5.41,0,0,1-.09.86c-.33,2-.8,4-2.68,5.31-1.11.78-1,2-.86,3.24a2.45,2.45,0,0,0,1.26-1.72c.61-2.31,1.72-3.24,4.2-3.52a12.85,12.85,0,0,1-1.58,3.55c-.77,1.23-2.28,1.26-3.44,2.08a5.23,5.23,0,0,0-1.07,3.09c0,.07-.08.15,0,.21s.08-.07.12-.1a4.94,4.94,0,0,0,1.72-2.07l.15-.19c1.33-1.47,3.18-1.41,4.92-1.73h0c-.56.77-1.15,1.51-1.72,2.29A2.63,2.63,0,0,1,57.65,43c-2.54-.07-3.61,1.78-3.83,4.06,1.14-1,1.46-2.74,3.1-3.09,1.46-.32,2.89.1,4.54.25a5.61,5.61,0,0,0-1.72,1.16,4.84,4.84,0,0,1-4.3,1.68,2.62,2.62,0,0,0-2.28,1.15c-.28.37-1.06,1.06-.78,1.28.52.41,1.15-.3,1.52-.64a4.64,4.64,0,0,1,6-.23c-.36.23-.71.46-1.06.66-1.82,1.08-3.61,2.08-5.83.94a.86.86,0,0,0-1.15.18c-.19.23-1.55,2.17-2.19,3.06a2.63,2.63,0,0,0,2.09-.68c2.32-1.72,4.64-1.6,6.88.39a12.45,12.45,0,0,1-2.43,1.26,5.11,5.11,0,0,1-4.93-.17,2.07,2.07,0,0,0-2.4.08l-.1.18A13.84,13.84,0,0,0,46.74,56.42Z"/><ellipse class="cls-1" cx="53.01" cy="24" rx="0.46" ry="0.48"/><path class="cls-1" d="M53.18,24a4.77,4.77,0,0,0-.36,1.38c-.08.7-.19,1.38-.19,1.38L52.31,26a8.31,8.31,0,0,1,.34-1.37,7.61,7.61,0,0,1,.31-.79Z"/><ellipse class="cls-1" cx="56.39" cy="40.76" rx="0.48" ry="0.46" transform="translate(-6.25 71.05) rotate(-61.67)"/><path class="cls-1" d="M56.54,40.84a4.55,4.55,0,0,0-1,1c-.4.58-.87,1.12-.87,1.12l.07-.79a9.48,9.48,0,0,1,.95-1.05c.21-.19.43-.37.65-.54Z"/><ellipse class="cls-1" cx="52.66" cy="51.28" rx="0.48" ry="0.46" transform="translate(-18.81 34.12) rotate(-30.74)"/><path class="cls-1" d="M52.74,51.42a5.12,5.12,0,0,0-1.37.4c-.64.29-1.28.54-1.28.54l.46-.64a8.11,8.11,0,0,1,1.35-.42c.68-.12.86-.13.86-.13Z"/><ellipse class="cls-1" cx="50.21" cy="54.63" rx="0.48" ry="0.46" transform="translate(-12.41 14.82) rotate(-14.97)"/><path class="cls-1" d="M50.25,54.78a4.89,4.89,0,0,0-1.43,0c-.69.1-1.38.16-1.38.16l.61-.49a8.42,8.42,0,0,1,1.42,0,6.13,6.13,0,0,1,.86.11Z"/><ellipse class="cls-2" cx="46.7" cy="57.76" rx="0.48" ry="0.46" transform="translate(-0.78 0.64) rotate(-0.78)"/><path class="cls-2" d="M46.7,57.93a4.73,4.73,0,0,0-1.38-.34c-.7-.07-1.38-.18-1.38-.18l.72-.32A8.1,8.1,0,0,1,46,57.4a7.61,7.61,0,0,1,.79.31Z"/><ellipse class="cls-1" cx="51.83" cy="28.9" rx="0.46" ry="0.48" transform="translate(-4.3 48.16) rotate(-48.08)"/><path class="cls-1" d="M51.72,29a5.18,5.18,0,0,1,1.26.65c.57.41,1.16.78,1.16.78l-.33-.71a7.87,7.87,0,0,0-1.25-.67,7.64,7.64,0,0,0-.8-.29Z"/><ellipse class="cls-1" cx="53.21" cy="43.33" rx="0.48" ry="0.46" transform="translate(7.22 94.25) rotate(-87.07)"/><path class="cls-1" d="M53.05,43.31a5.13,5.13,0,0,1,.29,1.4,9.06,9.06,0,0,0,.12,1.38l.35-.71A7.3,7.3,0,0,0,53.55,44q-.12-.41-.27-.81Z"/><ellipse class="cls-1" cx="51.68" cy="46.81" rx="0.48" ry="0.46" transform="translate(2.3 96.03) rotate(-87.07)"/><path class="cls-1" d="M51.51,46.8a4.79,4.79,0,0,1,.29,1.4,9.06,9.06,0,0,0,.12,1.38l.35-.71A7.38,7.38,0,0,0,52,47.48a5.79,5.79,0,0,0-.27-.8Z"/><ellipse class="cls-2" cx="47.07" cy="53.86" rx="0.48" ry="0.46" transform="translate(-23.01 68.18) rotate(-60.39)"/><path class="cls-2" d="M46.93,53.78a5.45,5.45,0,0,1-.37,1.37c-.28.65-.52,1.3-.52,1.3l.64-.47a7.34,7.34,0,0,0,.38-1.37,6.35,6.35,0,0,0,.12-.86Z"/><ellipse class="cls-2" cx="45.22" cy="53.94" rx="0.48" ry="0.46" transform="translate(-11.75 95.28) rotate(-85.99)"/><path class="cls-2" d="M45.06,53.93a5.1,5.1,0,0,1,.26,1.4,12.29,12.29,0,0,0,.09,1.39l.37-.7a8.08,8.08,0,0,0-.24-1.39,5.47,5.47,0,0,0-.26-.81Z"/><path class="cls-1" d="M22,13a1.76,1.76,0,0,1,1-.56c.34-.07.73-.26.73-.64s-.18-.45-.29-.64.34-.48,0-.93a.59.59,0,0,0-.83-.11.57.57,0,0,0-.11.11c-.17.17-.16-.11-.38-.25a.94.94,0,0,0-.62,0c-.14,0-.21-.21-.33-.43a.49.49,0,0,0-.56-.24c-.25,0-.5.23-.6.12s-.55-.58-.91-.41-.69.53-.16,1.11,1.43,1.29,1.48,1.67-.11.58,0,1a.9.9,0,0,0,.46.63l.09.18a7,7,0,0,1,.44,1.34,5.54,5.54,0,0,0,.18.58h9.3V10.2A23.67,23.67,0,0,1,30.57,14c-.28.81-.69,1.15-1.14,1.16s-.61,0-.51-.12a3.46,3.46,0,0,0,.75-.87,4.09,4.09,0,0,0,.57-2.29,8.88,8.88,0,0,0-.66-3.71,1.25,1.25,0,0,0-1.53-.76c-.79.28-.32,1.19-.25,1.34s.26.26,0,.23-1.39-.14-1.57.6.48,1.13,1.06,1.11a2.17,2.17,0,0,1,1.8.47c.55.56.91.79.81,1.37s-.42,1.85-1,2.14-1.13.67-1.63.49a2.72,2.72,0,0,1-1.08-.62l-.3-.32s-.15.62-.58.76a1.51,1.51,0,0,1-1.4-.06,9.41,9.41,0,0,1-1-1.24s-.19.86-.55.86a.91.91,0,0,1-1-.61c-.2-.58-.26-.48-.18-.48a1.11,1.11,0,0,0,.48-.09A.53.53,0,0,0,22,13Z"/><path class="cls-1" d="M27.31,11.76a.63.63,0,0,0-.77-.44l-.09,0c-.28.06-.41.47-.33-.17a.65.65,0,0,0-.56-.72h-.19c-.56.06-.93.62-.68,1a1.25,1.25,0,0,0,.15.19c.38.39,0,.2-.09.17a1.84,1.84,0,0,0-.38-.17.55.55,0,0,0-.47.17.59.59,0,0,0-.14.76.56.56,0,0,0,.49.26c.19,0,.61,0,.07.24a.52.52,0,0,0-.07.71.69.69,0,0,0,.86.2,3.09,3.09,0,0,1,.86-.34c.24,0,1,.09,1.12.08a.52.52,0,0,0,.48-.54.51.51,0,0,0-.43-.53c-.38-.07-.58-.06-.32-.17l.3-.16C27.39,12.21,27.31,11.76,27.31,11.76Z"/><path class="cls-1" d="M40.1,18.48H21.76A.46.46,0,0,1,21.3,18h0v-.17a.46.46,0,0,1,.46-.46H40.1a.47.47,0,0,1,.47.46h0V18a.47.47,0,0,1-.47.46Zm-18.34-.86a.25.25,0,0,0-.25.25h0V18a.25.25,0,0,0,.25.25H40.1a.25.25,0,0,0,.25-.25h0v-.16a.25.25,0,0,0-.25-.25H21.76Z"/><path class="cls-1" d="M40.1,16.29H21.58a.48.48,0,0,1-.28-.43.46.46,0,0,1,.46-.46H40.1a.46.46,0,0,1,.53.4.47.47,0,0,1-.4.52H40.1Zm-18.34-.71a.25.25,0,0,0-.25.23h0a.25.25,0,0,0,.16.23H40.1a.25.25,0,0,0,.25-.25h0a.24.24,0,0,0-.24-.24h0Z"/><path class="cls-1" d="M23.28,17.5a.67.67,0,1,1,.67-.66.67.67,0,0,1-.67.66Zm0-1.12a.45.45,0,0,0-.44.45h0a.44.44,0,0,0,.55.3.45.45,0,0,0,.31-.3A.46.46,0,0,0,23.28,16.38Z"/><path class="cls-1" d="M25.82,17.5a.67.67,0,1,1,.66-.66.66.66,0,0,1-.66.66Zm0-1.12a.44.44,0,0,0-.47.42v0a.45.45,0,0,0,.45.44h0a.44.44,0,0,0,.45-.43h0A.45.45,0,0,0,25.82,16.38Z"/><path class="cls-1" d="M28.36,17.5a.67.67,0,0,1,0-1.33.67.67,0,0,1,0,1.33Zm0-1.12a.45.45,0,0,0,0,.9h0a.44.44,0,0,0,.41-.44A.45.45,0,0,0,28.36,16.38Z"/><path class="cls-1" d="M33.44,17.5a.67.67,0,1,1,.67-.66.67.67,0,0,1-.67.66Zm0-1.12a.45.45,0,0,0-.45.45h0a.45.45,0,0,0,.45.44h0a.44.44,0,0,0,.45-.43h0a.45.45,0,0,0-.45-.46Z"/><path class="cls-1" d="M36,17.5a.67.67,0,0,1-.65-.67.66.66,0,1,1,.66.67Zm0-1.12a.46.46,0,0,0-.44.46.45.45,0,0,0,.51.39.47.47,0,0,0,.39-.39.45.45,0,0,0-.46-.46Z"/><path class="cls-1" d="M38.52,17.5a.67.67,0,1,1,.66-.66.66.66,0,0,1-.66.66Zm0-1.12a.46.46,0,0,0-.46.46.48.48,0,0,0,.59.28.44.44,0,0,0,.27-.28A.45.45,0,0,0,38.52,16.38Z"/><path class="cls-1" d="M30.9,17.5a.67.67,0,1,1,.67-.66.67.67,0,0,1-.66.66Zm0-1.12a.45.45,0,0,0-.45.45h0a.45.45,0,0,0,.45.44h0a.44.44,0,0,0,.47-.42v0a.45.45,0,0,0-.46-.46Z"/><path class="cls-1" d="M21.83,17.52h-.22a6.9,6.9,0,0,1,.05-.72,3.36,3.36,0,0,0-.06-.63l.22,0a3,3,0,0,1,.05.67A2.33,2.33,0,0,1,21.83,17.52Z"/><path class="cls-1" d="M40,17.52v-.75a3.71,3.71,0,0,1,.06-.67l.21,0a3.36,3.36,0,0,0-.06.63,5.65,5.65,0,0,0,0,.71Z"/><path class="cls-1" d="M27.53,15.23a2,2,0,0,1-1.6-.86v.07a1.75,1.75,0,0,1-.13.28,1.4,1.4,0,0,1-1.42.48c-.65-.09-1.15-.86-1.4-1.25h0a1.26,1.26,0,0,1-.13.37.86.86,0,0,1-1.13.21c-.49-.28-.71-1.29-.72-1.33v-.07l1.34-1,.06.06a14.24,14.24,0,0,1,1.39,1.41c.59.71,1,.65,1.45.34a1.92,1.92,0,0,0,.59-1.13l.05-.32.15.28s.27.52.48.86a1.11,1.11,0,0,0,.67.53.8.8,0,0,0,.86-.12,1.07,1.07,0,0,0,.41-1.26,1.05,1.05,0,0,0-.43-.48,1.3,1.3,0,0,1-.47-.54.64.64,0,0,1,.05-.64.92.92,0,0,1,.78-.35,2.09,2.09,0,0,1,1.26.75A1.57,1.57,0,0,1,30,12.81a2.84,2.84,0,0,1-2.07,2.38A1.75,1.75,0,0,1,27.53,15.23Zm-1.61-1.16a.17.17,0,0,1,.12.06v0a1.75,1.75,0,0,0,1.78.8,2.67,2.67,0,0,0,1.92-2.3,1.33,1.33,0,0,0-.31-1.07,1.86,1.86,0,0,0-1.11-.68.68.68,0,0,0-.59.25.43.43,0,0,0,0,.44,1,1,0,0,0,.41.45,1.24,1.24,0,0,1,0,2.11,1.05,1.05,0,0,1-1.08.13,1.37,1.37,0,0,1-.77-.61c-.12-.18-.25-.42-.36-.6a1.79,1.79,0,0,1-.58,1c-.62.43-1.16.32-1.72-.38a15,15,0,0,0-1.31-1.33l-1.08.79c.07.3.28,1,.59,1.12a.62.62,0,0,0,.86-.14.75.75,0,0,0,.1-.33.24.24,0,0,1,.13-.25.2.2,0,0,1,.15,0l.12.18c.21.32.69,1.08,1.25,1.16a1.23,1.23,0,0,0,1.21-.38,2.72,2.72,0,0,0,.11-.25c0-.08.09-.24.19-.26Z"/><path class="cls-1" d="M32.3,9.09h-.21a5.29,5.29,0,0,0-.23-1.85,1.83,1.83,0,0,0-.93-1.11A1.8,1.8,0,0,0,30,7.24a5.06,5.06,0,0,0-.23,1.85h-.22a5.49,5.49,0,0,1,.25-1.93A1.9,1.9,0,0,1,30.9,5.9h0A1.92,1.92,0,0,1,32,7.16,5.27,5.27,0,0,1,32.3,9.09Z"/><path class="cls-1" d="M34.26,15.23h-.37a2.88,2.88,0,0,1-2.09-2.47,1.57,1.57,0,0,1,.36-1.26,2.05,2.05,0,0,1,1.26-.76.92.92,0,0,1,.78.35.66.66,0,0,1,0,.65,1.23,1.23,0,0,1-.47.54,1.05,1.05,0,0,0-.43.48A1.11,1.11,0,0,0,33.76,14a.8.8,0,0,0,.86.11,1,1,0,0,0,.67-.52,8.89,8.89,0,0,0,.49-.86l.14-.28,0,.31a2,2,0,0,0,.59,1.14c.44.31.86.37,1.45-.34a13.41,13.41,0,0,1,1.4-1.42l.06-.06,1.36,1v.06s-.22,1-.71,1.34A.86.86,0,0,1,39,14.26a1.32,1.32,0,0,1-.13-.38h0c-.25.38-.75,1.16-1.4,1.25A1.4,1.4,0,0,1,36,14.65c-.05-.09-.09-.19-.13-.28V14.3A2,2,0,0,1,34.26,15.23Zm-.8-4.3h0a1.84,1.84,0,0,0-1.1.68,1.3,1.3,0,0,0-.31,1.07A2.63,2.63,0,0,0,34,15a1.72,1.72,0,0,0,1.72-.8v0a.17.17,0,0,1,.15-.06c.1,0,.14.13.19.26a1.62,1.62,0,0,0,.11.25,1.23,1.23,0,0,0,1.21.38c.55-.08,1-.86,1.25-1.16l.12-.17a.14.14,0,0,1,.15,0c.08,0,.1.12.13.25a.75.75,0,0,0,.1.32.61.61,0,0,0,.86.14c.31-.17.52-.86.59-1.12l-1.08-.79a14.94,14.94,0,0,0-1.31,1.33c-.58.7-1.12.82-1.72.38a1.83,1.83,0,0,1-.61-1c-.1.18-.24.41-.36.59a1.34,1.34,0,0,1-.77.61,1,1,0,0,1-1.07-.13,1.31,1.31,0,0,1-.5-1.53,1.34,1.34,0,0,1,.5-.58,1,1,0,0,0,.4-.44.43.43,0,0,0,0-.44A.65.65,0,0,0,33.46,10.93Z"/><path class="cls-1" d="M39.81,13a1.73,1.73,0,0,0-1-.56c-.35-.07-.72-.26-.72-.64s.17-.45.27-.64-.33-.48,0-.93a.59.59,0,0,1,.83-.11.63.63,0,0,1,.12.11c.17.17.15-.11.38-.25a.94.94,0,0,1,.62,0c.13,0,.2-.21.32-.43a.49.49,0,0,1,.56-.24c.26,0,.5.23.6.12s.55-.58.92-.41.68.53.15,1.11-1.43,1.29-1.48,1.67.11.58,0,1a.86.86,0,0,1-.45.63l-.09.18a6.4,6.4,0,0,0-.45,1.34,4.51,4.51,0,0,1-.17.58h-9.3V10.2A21.54,21.54,0,0,0,31.22,14c.27.81.68,1.15,1.14,1.16s.6,0,.51-.12a3.46,3.46,0,0,1-.75-.87,4.19,4.19,0,0,1-.58-2.29,8.9,8.9,0,0,1,.69-3.71,1.24,1.24,0,0,1,1.51-.76c.79.28.31,1.19.25,1.34s-.26.26,0,.23,1.39-.14,1.56.6-.46,1.13-1.06,1.11a2.14,2.14,0,0,0-1.79.47c-.56.56-.92.79-.81,1.37s.42,1.85,1,2.14,1.12.67,1.62.49a2.72,2.72,0,0,0,1.08-.62l.3-.32s.15.62.58.76a1.51,1.51,0,0,0,1.4-.06,10.27,10.27,0,0,0,1-1.24s.18.86.54.86a.9.9,0,0,0,1-.61c.21-.58.27-.48.19-.48a1.18,1.18,0,0,1-.49-.09A.55.55,0,0,1,39.81,13Z"/><path class="cls-1" d="M34.48,11.76a.63.63,0,0,1,.77-.44l.09,0c.27.06.41.47.32-.17a.66.66,0,0,1,.57-.72h.18c.57.06.94.62.69,1l-.15.19c-.38.39,0,.2.09.17a2.26,2.26,0,0,1,.35-.17.64.64,0,0,1,.61.93.56.56,0,0,1-.49.26c-.19,0-.61,0-.07.24a.52.52,0,0,1,.07.71.69.69,0,0,1-.86.2,3.09,3.09,0,0,0-.86-.34c-.24,0-1,.09-1.12.08a.52.52,0,0,1-.48-.54.51.51,0,0,1,.43-.53c.38-.07.58-.06.32-.17l-.3-.16C34.4,12.21,34.48,11.76,34.48,11.76Z"/><path class="cls-3" d="M30.93,21.21H13.54V45.85h0a15.16,15.16,0,0,0,6.65,12.53l.55.38,3,1.46a26.37,26.37,0,0,0,3.52,1.36l3.64,1.12,3.65-1.12a24.13,24.13,0,0,0,3.56-1.4l3-1.46.55-.38a15.11,15.11,0,0,0,6.6-12.52h0V21.21Z"/><path class="cls-4" d="M30.91,63h-.07c-.25-.08-6.09-2-7.24-2.53-1.78-.86-3-1.47-3.59-1.84A14.83,14.83,0,0,1,13.3,45.85V20.94H48.58v25c0,5.4-2.58,10.33-6.74,12.76-.63.37-1.81,1-3.59,1.84C37.1,61.06,31.27,63,31,63ZM13.81,21.47V45.85a14.16,14.16,0,0,0,6.48,12.29c.61.37,1.8,1,3.54,1.84,1.05.5,6.36,2.23,7.08,2.47.74-.24,6-2,7.09-2.47,1.73-.86,2.94-1.47,3.55-1.84A14.16,14.16,0,0,0,48,45.85V21.47Z"/><path class="cls-5" d="M37.47,33.12a11.24,11.24,0,0,0-.21-2.59c-.07-.15-.43-.31-1.1-.45a7.42,7.42,0,0,0-1.4-.22c-.09,0-.12-.11-.12-.33a.63.63,0,0,1,.12-.46l1.64.1c.82.06,1.52.08,2.09.08a18,18,0,0,0,2.06-.09L42,29.07a1.31,1.31,0,0,1,.07.44c0,.23,0,.35-.13.35a7.74,7.74,0,0,0-1.36.24c-.71.15-1.09.3-1.13.43a10.74,10.74,0,0,0-.25,2.71V44.37c0,1.09,0,2.32.08,3.68a.48.48,0,0,1-.46.51H38.7a1.4,1.4,0,0,1-1-.67L25.4,34.13V44.27A11.47,11.47,0,0,0,25.62,47c.05.14.4.28,1.06.42a8.33,8.33,0,0,0,1.31.22c.06,0,.09.12.11.35a1.16,1.16,0,0,1-.05.49c-2.1-.09-3.29-.15-3.6-.15l-3.63.15c-.06,0-.09-.2-.09-.43s0-.41.09-.41a7.71,7.71,0,0,0,1.44-.22c.66-.14,1-.31,1.08-.48a8,8,0,0,0,.29-2.7V32.74a8.5,8.5,0,0,0-.23-2.19c-.06-.15-.42-.3-1.06-.42a8.64,8.64,0,0,0-1.42-.19c-.09,0-.13-.13-.13-.37a.64.64,0,0,1,.13-.48c1.63,0,2.2.06,2.71.06h.53a2.52,2.52,0,0,1,1.91.91c1.67,2,5.82,6.3,11,13a.2.2,0,0,0,.27,0,.21.21,0,0,0,.07-.13v-.74Z"/></svg>