<svg id="Layer_1" data-name="Layer 1" xmlns="http://www.w3.org/2000/svg" viewBox="0 0 512 512"><defs><style>.cls-1{fill:#006eb7;}</style></defs><path class="cls-1" d="M472.18,133.91h-54.3V35.13a17.07,17.07,0,0,0-17.07-17.06H111.19A17.07,17.07,0,0,0,94.12,35.13v98.78H39.82A39.86,39.86,0,0,0,0,173.73v171.7a39.86,39.86,0,0,0,39.82,39.82H94.13v91.62a17.06,17.06,0,0,0,17.06,17.06H400.8a17.06,17.06,0,0,0,17.07-17.06V385.25h54.31A39.86,39.86,0,0,0,512,345.43V173.73A39.86,39.86,0,0,0,472.18,133.91ZM128.26,52.2H383.74v81.71H128.26ZM383.74,459.8H128.26V320.17H383.74Zm94.13-114.37a5.69,5.69,0,0,1-5.69,5.69H417.87v-48A17.06,17.06,0,0,0,400.81,286H111.2a17.07,17.07,0,0,0-17.07,17.07v48H39.82a5.69,5.69,0,0,1-5.69-5.69V173.73A5.69,5.69,0,0,1,39.82,168H472.18a5.7,5.7,0,0,1,5.69,5.69v171.7Z"/><path class="cls-1" d="M400.81,200H357.37a17.07,17.07,0,1,0,0,34.13h43.44a17.07,17.07,0,1,0,0-34.13Z"/><path class="cls-1" d="M330,399.83H182A17.07,17.07,0,0,0,182,434H330a17.07,17.07,0,0,0,0-34.14Z"/><path class="cls-1" d="M330,346H182a17.07,17.07,0,0,0,0,34.13H330A17.07,17.07,0,0,0,330,346Z"/></svg>