<svg id="Слой_1" data-name="Слой 1" xmlns="http://www.w3.org/2000/svg" xmlns:xlink="http://www.w3.org/1999/xlink" viewBox="0 0 63.9 65.85"><defs><style>.cls-1{fill:#c2af58;}.cls-2{fill:#a59646;}.cls-3{fill:url(#Безымянный_градиент);}.cls-4{fill:#203952;}.cls-5{fill:#fff;}</style><radialGradient id="Безымянный_градиент" cx="31.9" cy="-1.19" r="19.13" gradientTransform="translate(0 40)" gradientUnits="userSpaceOnUse"><stop offset="0" stop-color="#3a72ac"/><stop offset="1" stop-color="#3e629f"/></radialGradient></defs><ellipse class="cls-1" cx="6.36" cy="37.21" rx="0.46" ry="0.48" transform="translate(-16.9 7.48) rotate(-28.33)"/><path class="cls-1" d="M6.21,37.3a4.74,4.74,0,0,1,1,1c.4.57.85,1.11.85,1.11L8,38.65a8,8,0,0,0-.93-1,8.3,8.3,0,0,0-.64-.54Z"/><path class="cls-1" d="M33.86,59.29a23.67,23.67,0,0,0-2.71-.86c-.86-.24-1.78-.52-2.91-.86-8-2.58-10.94-4.54-13-6.3a17.94,17.94,0,0,1-2.49-2.8l-.39-.53-.07-.1-.46-.68-.41-.66-.26-.41V46c-.21-.35-.41-.71-.61-1.09l-.13-.23c-.11-.21-.23-.43-.33-.65a21.69,21.69,0,0,1-1.26-3.31,19,19,0,0,1-.71-3.49A19.25,19.25,0,0,1,8,33.7a23.21,23.21,0,0,1,1.33-7A35.72,35.72,0,0,1,12.42,20c-.65.86-.5-.26-1,.69-.64,1.13-2.17,4.46-2.65,5.74l-.3.86c-.1.3-.17.59-.27.86-.18.59-.31,1.19-.45,1.79a2.42,2.42,0,0,0-.1.45l-.09.43a7.08,7.08,0,0,1-.16.9l-.11.92c0,.31-.08.61-.1.92A20,20,0,0,0,7.86,41c.07.3.18.6.26.86a8.26,8.26,0,0,0,.32.86c.22.58.47,1.15.73,1.72.05.1.11.2.16.32s.17.38.29.61A20.85,20.85,0,0,0,11,47.66h0A22.89,22.89,0,0,0,14.6,52c2.11,1.88,5.2,3.88,13.4,6.5,1.14.36,2.09.64,2.93.86a26,26,0,0,1,2.58.86c1,.45,2.71,1.32,2.73,1.33l.48-.85C36.59,60.64,35,59.78,33.86,59.29Z"/><path class="cls-1" d="M14,51.42l-.08-.17a2.11,2.11,0,0,0-2.41-.08,5.11,5.11,0,0,1-4.93.17,12.25,12.25,0,0,1-2.44-1.26c2.25-2,4.57-2.12,6.89-.39a2.63,2.63,0,0,0,2.09.68c-.65-.86-2-2.83-2.2-3.06a.85.85,0,0,0-1.14-.18c-2.23,1.14-4,.14-5.83-.94a9.62,9.62,0,0,1-1-.66,4.64,4.64,0,0,1,6,.23c.37.34,1,1.05,1.52.64.3-.22-.5-.91-.77-1.28A2.66,2.66,0,0,0,7.43,44a4.84,4.84,0,0,1-4.31-1.67,5.27,5.27,0,0,0-1.78-1.16C3,41,4.42,40.56,5.88,40.85c1.64.35,2,2.12,3.1,3.09-.21-2.26-1.29-4.09-3.82-4a2.63,2.63,0,0,1-2.48-1.27c-.53-.79-1.12-1.52-1.68-2.29H1c1.72.27,3.59.21,4.92,1.72l.15.19a4.82,4.82,0,0,0,1.72,2.07s.11.12.12.11a.22.22,0,0,0,0-.22,5.23,5.23,0,0,0-1.07-3.09c-1.14-.86-2.65-.86-3.44-2.08a12.66,12.66,0,0,1-1.58-3.54C4.3,31.79,5.41,32.72,6,35a2.49,2.49,0,0,0,1.26,1.73c.13-1.26.22-2.47-.86-3.25-1.88-1.3-2.35-3.25-2.68-5.31,0-.29-.05-.57-.09-.86,2.58,1.21,3.44,3.86,3.66,6.52.42-1.77.4-3.38-.86-4.74A3.16,3.16,0,0,1,5.64,26a10.78,10.78,0,0,0,.28-2.53,13.33,13.33,0,0,1,1.9,3.07,6.67,6.67,0,0,1-.13,2.67,12.16,12.16,0,0,0,.07,1.91c.36-1.48,1.52-3.82.44-5.37-1.2-1.83-1.2-4-.29-6.66a11.63,11.63,0,0,1,1.47,3.37c.21,1.22-.55,2.83-.52,4.07a34.28,34.28,0,0,1,1.88-4.2,3.72,3.72,0,0,0,.52-1.72,3.36,3.36,0,0,1,1.91-3.06c.7-.39,1.35-.57,2.17-1a15.26,15.26,0,0,1-.06,1.66c-.71-.07-.52.24-.47.86s-.17.64-.19,1.13a4.88,4.88,0,0,1-1.72.86c-.14.05-.9.23-1,.29-1,.51-1.5,1.81-1.91,3a16,16,0,0,0,2.28-2,3.71,3.71,0,0,1,2.15-1v2.84a12.42,12.42,0,0,1-3.69.41,1.37,1.37,0,0,0-.87.28c-.62.35-2,5.42-1.88,6.89A3.2,3.2,0,0,0,9.2,30a4.1,4.1,0,0,1,2.65-3.09c.52-.2,1-.43,1.56-.65l.11.11c-.46,2-1.28,3.63-3.31,4.42a4.33,4.33,0,0,0-2.13,1.54,4.87,4.87,0,0,0-.23,3.58,11.55,11.55,0,0,0,1-2.1A3.75,3.75,0,0,1,10,31.76a17.39,17.39,0,0,1,3.79-1.82c-.69,2.49-1.85,4.37-4.2,5.28A6.86,6.86,0,0,0,8.48,36a1.76,1.76,0,0,0-.71,1.27c.14.86.42,1.72.58,2.71A6.73,6.73,0,0,0,9,39a2.28,2.28,0,0,0,.23-.68,4.42,4.42,0,0,1,.86-2.25,24.22,24.22,0,0,1,2.76-2.4s-.06.67-.09.86c-.18,1.68-.51,3.38-1.72,4.1a14.15,14.15,0,0,1-1.49.79c-1.3.78-.86,1.72-.76,2.34a7.78,7.78,0,0,0,.81,1.57c.92-1.09.57-2.42,1.35-3.33a7.26,7.26,0,0,1,2.82-2.08c.13,2.9-.5,3.93-3,5.08-.66.3-1,.72-.55,1.45.17.26.86,2.32,1.43,2.36s.66-.76.7-1.34a3.93,3.93,0,0,1,2-3.27c.12,1.33.23,2.68.33,4a4.76,4.76,0,0,1-1.61.44c-1,.13-1.29.7-.73,1.52.34.49.69,1,1.05,1.43.12.15.22.42.46.34a.56.56,0,0,0,.31-.59,3,3,0,0,1,.76-2l1,2.68c-.57.08-1.42-.17-1.6.37s.69.76,1.07,1.15a5.93,5.93,0,0,1,1,.94c.18.29.74,1.39,1.07.68.42.43.64.32,1.13.71,1,.75,1.91,1.3,2.91,2-.76.2-.44.72-.26,1.09.86,1.83.59,2.58-.48,3.55-.49.51-1,.86-1.54,1.5-.43-.95-.86-1.79-1.18-2.67a1.6,1.6,0,0,1,.68-1.94c.5-.41,1.09-.71,1.6-1.12s.42-.55-.13-.86a1.14,1.14,0,0,0-1.59.23,1,1,0,0,0-.13.23,4.11,4.11,0,0,0-.5.86c-.67,2.11-2,2.55-4.12,2.55-.18,0-2-.16-2-.16a11.58,11.58,0,0,1,.65-1.49,3.68,3.68,0,0,1,4.3-2.19,1.61,1.61,0,0,0,1.44-.22c.14-.12.44-.21.33-.44s-.16-.41-.35-.46c-.53-.15-.34-.38-1.15-.58a1.79,1.79,0,0,0-1.54.24c-2.48,2.58-5.16,1.32-8,.42A8.29,8.29,0,0,1,11,52.22a4.59,4.59,0,0,1,2.81.23c.69.36,1.28,1,2.21.76A16.36,16.36,0,0,0,14,51.42Z"/><ellipse class="cls-1" cx="9.79" cy="20.85" rx="0.46" ry="0.48"/><path class="cls-1" d="M9.62,20.85A4.8,4.8,0,0,1,10,22.23c.08.7.19,1.38.19,1.38l.3-.76a7.42,7.42,0,0,0-.34-1.37,5.88,5.88,0,0,0-.31-.79Z"/><ellipse class="cls-1" cx="10.16" cy="48.14" rx="0.46" ry="0.48" transform="translate(-36.41 32.26) rotate(-59.26)"/><path class="cls-1" d="M10.07,48.27a5,5,0,0,1,1.36.4c.64.29,1.28.54,1.28.54l-.46-.64a8.11,8.11,0,0,0-1.35-.42C10.22,48,10,48,10,48Z"/><ellipse class="cls-1" cx="12.84" cy="51.52" rx="0.46" ry="0.48" transform="translate(-40.25 50.58) rotate(-75)"/><path class="cls-1" d="M12.58,51.63a4.83,4.83,0,0,1,1.42,0c.7.1,1.38.16,1.38.16l-.61-.49a8.42,8.42,0,0,0-1.42,0,6.13,6.13,0,0,0-.86.11Z"/><ellipse class="cls-2" cx="16.11" cy="54.6" rx="0.46" ry="0.48" transform="translate(-38.7 69.96) rotate(-89.22)"/><path class="cls-2" d="M16.1,54.78a4.72,4.72,0,0,1,1.39-.34c.69-.07,1.37-.18,1.37-.18l-.71-.32a8.22,8.22,0,0,0-1.39.31,7.61,7.61,0,0,0-.79.31Z"/><ellipse class="cls-1" cx="10.98" cy="25.75" rx="0.48" ry="0.46" transform="translate(-14.4 13.92) rotate(-41.92)"/><path class="cls-1" d="M11.08,25.85a5.37,5.37,0,0,0-1.26.65c-.57.41-1.15.78-1.15.78l.33-.7a10,10,0,0,1,1.25-.67,7.64,7.64,0,0,1,.8-.29Z"/><ellipse class="cls-1" cx="9.56" cy="40.24" rx="0.46" ry="0.48" transform="translate(-2 0.53) rotate(-2.86)"/><path class="cls-1" d="M9.75,40.16a4.77,4.77,0,0,0-.28,1.4c-.05.7-.12,1.38-.12,1.38L9,42.23a8.18,8.18,0,0,1,.26-1.38A6.41,6.41,0,0,1,9.53,40Z"/><ellipse class="cls-1" cx="11.13" cy="43.66" rx="0.46" ry="0.48" transform="translate(-2.22 0.63) rotate(-2.93)"/><path class="cls-1" d="M11.3,43.65a5.15,5.15,0,0,0-.3,1.4,9.06,9.06,0,0,1-.12,1.38l-.36-.71a8.32,8.32,0,0,1,.27-1.39,5.79,5.79,0,0,1,.27-.8Z"/><ellipse class="cls-2" cx="15.73" cy="50.71" rx="0.46" ry="0.48" transform="translate(-23 14.39) rotate(-29.61)"/><path class="cls-2" d="M15.88,50.63A4.64,4.64,0,0,0,16.25,52c.27.65.51,1.3.51,1.3l-.63-.45a8,8,0,0,1-.39-1.37,6.14,6.14,0,0,1-.12-.86Z"/><ellipse class="cls-2" cx="17.58" cy="50.8" rx="0.46" ry="0.48" transform="translate(-3.51 1.35) rotate(-4.01)"/><path class="cls-2" d="M17.74,50.78a5.17,5.17,0,0,0-.26,1.4,10.7,10.7,0,0,1-.1,1.39L17,52.85a10.92,10.92,0,0,1,.24-1.39,8.45,8.45,0,0,1,.26-.81Z"/><path class="cls-1" d="M29.94,59.29a23.83,23.83,0,0,1,2.72-.86c.86-.24,1.78-.52,2.9-.86,8-2.58,11-4.54,13-6.3A18.08,18.08,0,0,0,51,48.47c.13-.18.27-.35.39-.53a.36.36,0,0,0,.07-.1l.46-.68.42-.66.25-.41V46c.21-.35.42-.71.62-1.09l.12-.23c.12-.21.23-.43.33-.65A20.66,20.66,0,0,0,55,40.75a19.87,19.87,0,0,0,.73-3.49,22.26,22.26,0,0,0,.08-3.56,23.53,23.53,0,0,0-1.34-7A35.09,35.09,0,0,0,51.38,20c.65.86.5-.26,1,.69A58.75,58.75,0,0,1,55,26.46l.3.86c.1.3.18.59.27.86.18.59.31,1.19.46,1.79a3.58,3.58,0,0,1,.09.45l.09.46a7.08,7.08,0,0,0,.16.9l.11.92c.05.31.08.61.1.92A20.17,20.17,0,0,1,56,41c-.08.3-.18.6-.27.86s-.2.59-.32.86c-.21.58-.46,1.15-.72,1.72l-.17.32a2.6,2.6,0,0,1-.29.61,15.58,15.58,0,0,1-1.37,2.29h0A21.87,21.87,0,0,1,49.26,52c-2.17,1.88-5.21,3.88-13.4,6.5-1.15.36-2.1.64-2.94.86a26,26,0,0,0-2.58.86c-1,.45-2.71,1.32-2.73,1.33l-.49-1A24.3,24.3,0,0,0,29.94,59.29Z"/><path class="cls-1" d="M47.74,53.27c.93.25,1.51-.41,2.21-.77a4.71,4.71,0,0,1,2.8-.23,8.22,8.22,0,0,1,3.45,2.19c-2.82.86-5.49,2.14-8-.42a1.8,1.8,0,0,0-1.5-.19c-.81.21-.61.43-1.16.58-.18.06-.28.3-.35.46s.2.32.34.44a1.59,1.59,0,0,0,1.43.22,3.68,3.68,0,0,1,4.3,2.19,13.22,13.22,0,0,1,.66,1.49s-1.86.16-2,.16c-2.17,0-3.44-.48-4.1-2.58a4.11,4.11,0,0,0-.5-.86,1.14,1.14,0,0,0-1.5-.59l-.22.13c-.55.27-.51.53-.13.86s1.09.72,1.6,1.12a1.63,1.63,0,0,1,.68,2c-.35.86-.76,1.72-1.18,2.66-.55-.61-1-1-1.54-1.49-1.08-1-1.35-1.73-.48-3.56.18-.37.5-.86-.27-1.09,1-.69,2-1.24,2.92-2,.5-.39.71-.27,1.12-.7.33.7.86-.4,1.08-.69a6.75,6.75,0,0,1,1-1c.38-.38,1.22-.74,1.07-1.15s-1-.28-1.59-.37l1-2.67a3,3,0,0,1,.73,2,.56.56,0,0,0,.3.59c.25.08.34-.18.46-.34a10.52,10.52,0,0,0,1-1.43c.56-.86.31-1.39-.73-1.52A4.76,4.76,0,0,1,49,46.27l.33-4a3.93,3.93,0,0,1,2,3.28c0,.58.21,1.39.7,1.34s1.26-2.1,1.43-2.35c.46-.74.11-1.16-.56-1.46-2.49-1.15-3.12-2.18-3-5.08a7.44,7.44,0,0,1,2.82,2.08c.78.91.42,2.25,1.35,3.33a7.81,7.81,0,0,0,.9-1.56c.09-.6.54-1.56-.76-2.34a12,12,0,0,1-1.49-.83c-1.2-.72-1.53-2.42-1.72-4.1,0-.2-.09-.86-.09-.86a24.22,24.22,0,0,1,2.76,2.4,4.42,4.42,0,0,1,.86,2.25,2.28,2.28,0,0,0,.23.68,6.73,6.73,0,0,0,.65.93c.16-1,.44-1.84.58-2.71A1.76,1.76,0,0,0,55.31,36a6.77,6.77,0,0,0-1.1-.73C51.85,34.36,50.69,32.48,50,30a17.82,17.82,0,0,1,3.79,1.81,3.79,3.79,0,0,1,1.17,2,12.62,12.62,0,0,0,1,2.1,4.78,4.78,0,0,0-.23-3.58,4.24,4.24,0,0,0-2.12-1.58c-2-.79-2.86-2.45-3.32-4.41l.16-.08c.52.21,1,.45,1.56.64A4.11,4.11,0,0,1,54.61,30a3.25,3.25,0,0,0,1.25,1.73c.08-1.46-1.26-6.54-1.89-6.89a1.35,1.35,0,0,0-.86-.28,12.42,12.42,0,0,1-3.69-.41V21.34a3.68,3.68,0,0,1,2.14,1,16.71,16.71,0,0,0,2.33,2.12A5.4,5.4,0,0,0,52,21.51c-.12-.06-.86-.24-1-.3a4.8,4.8,0,0,1-1.72-.86c0-.49-.24-.65-.19-1.13,0-.65.24-.95-.48-.86,0-.42,0-1.1-.06-1.66.86.44,1.47.62,2.17,1a3.37,3.37,0,0,1,1.92,3.06,3.6,3.6,0,0,0,.52,1.72A35,35,0,0,1,55,26.63c0-1.23-.73-2.85-.52-4.07A11.36,11.36,0,0,1,56,19.19c.86,2.7,1,4.83-.3,6.64-1.07,1.54.08,3.89.44,5.36a13.35,13.35,0,0,0,0-2A6.52,6.52,0,0,1,56,26.48a13.76,13.76,0,0,1,1.94-3.17,10.78,10.78,0,0,0,.24,2.54A3.16,3.16,0,0,1,57.37,29c-1.24,1.36-1.26,3-.86,4.75.19-2.64,1-5.29,3.66-6.49a6.11,6.11,0,0,1-.09.86c-.33,2-.8,4-2.68,5.31-1.11.78-1,2-.86,3.24a2.45,2.45,0,0,0,1.26-1.72c.61-2.31,1.72-3.24,4.2-3.52A12.72,12.72,0,0,1,60.42,35C59.65,36.18,58.14,36.21,57,37a5.23,5.23,0,0,0-1.07,3.09c0,.07-.08.15,0,.21s.08-.07.12-.1a5,5,0,0,0,1.72-2.07L57.9,38c1.33-1.47,3.18-1.41,4.92-1.73h0c-.56.77-1.15,1.51-1.72,2.29a2.62,2.62,0,0,1-2.45,1.32c-2.54-.07-3.61,1.78-3.83,4.06,1.14-1,1.46-2.74,3.1-3.09,1.46-.32,2.89.1,4.54.25a5.73,5.73,0,0,0-1.72,1.16,4.83,4.83,0,0,1-4.3,1.68,2.62,2.62,0,0,0-2.28,1.15c-.28.37-1.06,1.06-.78,1.28.52.41,1.15-.3,1.52-.64a4.65,4.65,0,0,1,6-.23c-.36.23-.71.46-1.06.66-1.82,1.08-3.61,2.08-5.83.94a.86.86,0,0,0-1.15.18c-.19.23-1.55,2.17-2.19,3.06a2.63,2.63,0,0,0,2.09-.68c2.32-1.72,4.64-1.6,6.88.39a12.45,12.45,0,0,1-2.43,1.26,5.11,5.11,0,0,1-4.93-.17,2.07,2.07,0,0,0-2.4.08l-.1.18A13.6,13.6,0,0,0,47.74,53.27Z"/><ellipse class="cls-1" cx="54.01" cy="20.85" rx="0.46" ry="0.48"/><path class="cls-1" d="M54.18,20.85a4.77,4.77,0,0,0-.36,1.38c-.08.7-.19,1.38-.19,1.38l-.32-.76a8.31,8.31,0,0,1,.34-1.37,7.61,7.61,0,0,1,.31-.79Z"/><ellipse class="cls-1" cx="57.39" cy="37.61" rx="0.48" ry="0.46" transform="translate(-2.95 70.28) rotate(-61.67)"/><path class="cls-1" d="M57.54,37.69a4.74,4.74,0,0,0-1,1c-.4.58-.87,1.12-.87,1.12l.07-.79A10.47,10.47,0,0,1,56.69,38c.21-.19.43-.37.65-.54Z"/><ellipse class="cls-1" cx="53.66" cy="48.13" rx="0.48" ry="0.46" transform="translate(-17.06 34.19) rotate(-30.74)"/><path class="cls-1" d="M53.74,48.27a5.52,5.52,0,0,0-1.37.4c-.64.29-1.28.54-1.28.54l.46-.64a8.11,8.11,0,0,1,1.35-.42c.68-.12.86-.13.86-.13Z"/><ellipse class="cls-1" cx="51.21" cy="51.48" rx="0.48" ry="0.46" transform="translate(-11.56 14.97) rotate(-14.97)"/><path class="cls-1" d="M51.25,51.63a4.9,4.9,0,0,0-1.43,0c-.69.1-1.38.16-1.38.16l.61-.49a8.42,8.42,0,0,1,1.42,0,6.13,6.13,0,0,1,.86.11Z"/><ellipse class="cls-2" cx="47.7" cy="54.61" rx="0.48" ry="0.46" transform="translate(-0.74 0.65) rotate(-0.78)"/><path class="cls-2" d="M47.7,54.78a4.73,4.73,0,0,0-1.38-.34c-.7-.07-1.38-.18-1.38-.18l.72-.32a9,9,0,0,1,1.34.31,7.61,7.61,0,0,1,.79.31Z"/><ellipse class="cls-1" cx="52.83" cy="25.75" rx="0.46" ry="0.48" transform="translate(-1.63 47.86) rotate(-48.08)"/><path class="cls-1" d="M52.72,25.85A5.37,5.37,0,0,1,54,26.5c.57.41,1.16.78,1.16.78l-.33-.71a8.33,8.33,0,0,0-1.25-.67,7.64,7.64,0,0,0-.8-.29Z"/><ellipse class="cls-1" cx="54.21" cy="40.18" rx="0.48" ry="0.46" transform="translate(11.32 92.26) rotate(-87.07)"/><path class="cls-1" d="M54.05,40.16a5.13,5.13,0,0,1,.29,1.4,8,8,0,0,0,.12,1.38l.35-.71a7.15,7.15,0,0,0-.26-1.38q-.12-.41-.27-.81Z"/><ellipse class="cls-1" cx="52.69" cy="43.66" rx="0.48" ry="0.46" transform="translate(6.39 94.05) rotate(-87.07)"/><path class="cls-1" d="M52.51,43.65a4.79,4.79,0,0,1,.29,1.4,8,8,0,0,0,.12,1.38l.35-.71A8.32,8.32,0,0,0,53,44.33a5.79,5.79,0,0,0-.27-.8Z"/><ellipse class="cls-2" cx="48.07" cy="50.72" rx="0.48" ry="0.46" transform="translate(-19.78 67.46) rotate(-60.39)"/><path class="cls-2" d="M47.93,50.63A5.45,5.45,0,0,1,47.56,52c-.28.65-.52,1.3-.52,1.3l.64-.47a7.13,7.13,0,0,0,.38-1.37,6.14,6.14,0,0,0,.12-.86Z"/><ellipse class="cls-2" cx="46.22" cy="50.79" rx="0.48" ry="0.46" transform="translate(-7.68 93.35) rotate(-85.99)"/><path class="cls-2" d="M46.06,50.78a5.17,5.17,0,0,1,.26,1.4,10.7,10.7,0,0,0,.09,1.39l.37-.7a8.25,8.25,0,0,0-.24-1.39,5.87,5.87,0,0,0-.26-.81Z"/><path class="cls-1" d="M23,9.85a1.76,1.76,0,0,1,1-.56c.34-.07.73-.26.73-.64s-.18-.45-.29-.64.34-.48,0-.93A.59.59,0,0,0,23.61,7h0l-.11.11c-.17.17-.16-.11-.38-.25a.94.94,0,0,0-.62,0c-.14,0-.21-.21-.33-.43a.49.49,0,0,0-.56-.24c-.25,0-.5.23-.6.12s-.55-.58-.91-.41-.69.53-.16,1.11,1.43,1.29,1.48,1.67-.11.58,0,1a.9.9,0,0,0,.46.63l.09.18a7,7,0,0,1,.44,1.34,5.58,5.58,0,0,0,.18.58h9.3V7.05a23,23,0,0,1-.32,3.8c-.28.81-.69,1.15-1.14,1.16s-.61,0-.51-.12a3.29,3.29,0,0,0,.75-.87,4.09,4.09,0,0,0,.57-2.29A8.91,8.91,0,0,0,30.58,5a1.26,1.26,0,0,0-1.53-.76c-.79.28-.32,1.19-.25,1.34s.26.26,0,.23-1.39-.14-1.57.6.48,1.13,1.06,1.11a2.17,2.17,0,0,1,1.8.47c.55.56.91.79.81,1.37s-.42,1.85-1,2.14-1.13.67-1.63.49a2.72,2.72,0,0,1-1.08-.62l-.3-.32s-.15.62-.58.76a1.51,1.51,0,0,1-1.4-.06,9.2,9.2,0,0,1-1-1.24s-.19.86-.55.86a.9.9,0,0,1-1-.61c-.2-.58-.26-.48-.18-.48a1,1,0,0,0,.48-.09A.51.51,0,0,0,23,9.85Z"/><path class="cls-1" d="M28.31,8.61a.63.63,0,0,0-.77-.44h-.09c-.28.06-.41.47-.33-.17a.66.66,0,0,0-.56-.72h-.19c-.56.06-.93.62-.68,1a.9.9,0,0,0,.15.19c.38.39,0,.2-.09.17a1.84,1.84,0,0,0-.38-.17.56.56,0,0,0-.47.17.59.59,0,0,0-.14.76.55.55,0,0,0,.49.26c.19,0,.61,0,.07.24a.52.52,0,0,0-.07.71.68.68,0,0,0,.86.2,3.35,3.35,0,0,1,.86-.34c.24,0,1,.09,1.12.08a.52.52,0,0,0,.48-.54.51.51,0,0,0-.43-.53c-.38-.07-.58-.06-.32-.17l.3-.16C28.39,9.06,28.31,8.61,28.31,8.61Z"/><path class="cls-1" d="M41.1,15.33H22.76a.46.46,0,0,1-.46-.46v0h0v-.17a.47.47,0,0,1,.46-.46H41.1a.47.47,0,0,1,.47.46h0v.17a.47.47,0,0,1-.47.46Zm-18.34-.86a.25.25,0,0,0-.25.25h0v.13a.25.25,0,0,0,.25.25H41.1a.25.25,0,0,0,.25-.25h0v-.16a.25.25,0,0,0-.25-.25H22.76Z"/><path class="cls-1" d="M41.1,13.14H22.58a.47.47,0,0,1-.28-.43.47.47,0,0,1,.46-.46H41.1a.46.46,0,0,1,.53.38v0a.47.47,0,0,1-.4.52H41.1Zm-18.34-.71a.25.25,0,0,0-.25.23h0a.24.24,0,0,0,.16.23H41.1a.25.25,0,0,0,.25-.25h0a.24.24,0,0,0-.24-.24h0Z"/><path class="cls-1" d="M24.28,14.35a.67.67,0,1,1,.67-.67h0A.67.67,0,0,1,24.28,14.35Zm0-1.12a.46.46,0,0,0-.44.45h0a.43.43,0,0,0,.54.3h0a.45.45,0,0,0,.31-.3A.46.46,0,0,0,24.28,13.23Z"/><path class="cls-1" d="M26.82,14.35a.67.67,0,1,1,.66-.68v0A.66.66,0,0,1,26.82,14.35Zm0-1.12a.44.44,0,0,0-.47.41h0a.45.45,0,0,0,.45.44h0a.44.44,0,0,0,.45-.43h0A.45.45,0,0,0,26.82,13.23Z"/><path class="cls-1" d="M29.36,14.35a.67.67,0,0,1,0-1.33.67.67,0,0,1,.58.75A.66.66,0,0,1,29.36,14.35Zm0-1.12a.45.45,0,0,0,0,.9h0a.45.45,0,0,0,0-.9Z"/><path class="cls-1" d="M34.44,14.35a.67.67,0,1,1,.67-.67h0A.67.67,0,0,1,34.44,14.35Zm0-1.12a.45.45,0,0,0-.45.45h0a.45.45,0,0,0,.45.44h0a.44.44,0,0,0,.45-.43h0a.45.45,0,0,0-.44-.46Z"/><path class="cls-1" d="M37,14.35A.66.66,0,1,1,37,13a.66.66,0,0,1,0,1.32Zm0-1.12a.46.46,0,0,0-.44.46.45.45,0,0,0,.5.39h0a.47.47,0,0,0,.39-.39.45.45,0,0,0-.44-.46Z"/><path class="cls-1" d="M39.52,14.35a.67.67,0,1,1,.66-.68v0A.66.66,0,0,1,39.52,14.35Zm0-1.12a.47.47,0,0,0-.46.46.47.47,0,0,0,.59.28.42.42,0,0,0,.27-.28A.46.46,0,0,0,39.52,13.23Z"/><path class="cls-1" d="M31.9,14.35a.67.67,0,1,1,.67-.67h0a.67.67,0,0,1-.66.66Zm0-1.12a.45.45,0,0,0-.45.45h0a.45.45,0,0,0,.45.44h0a.44.44,0,0,0,.47-.41h0a.45.45,0,0,0-.44-.46h0Z"/><path class="cls-1" d="M22.83,14.37h-.22a5.81,5.81,0,0,1,.05-.72A3.36,3.36,0,0,0,22.6,13h.22a3,3,0,0,1,.05.67A2.21,2.21,0,0,1,22.83,14.37Z"/><path class="cls-1" d="M41,14.37v-.75a3.79,3.79,0,0,1,.06-.67h.21a3.36,3.36,0,0,0-.06.63c0,.24,0,.48,0,.71Z"/><path class="cls-1" d="M28.53,12.08a2,2,0,0,1-1.6-.86v.07a1.43,1.43,0,0,1-.13.28,1.4,1.4,0,0,1-1.42.48c-.65-.09-1.15-.86-1.4-1.25h0a1.16,1.16,0,0,1-.13.37.86.86,0,0,1-1.13.21c-.49-.28-.71-1.29-.72-1.33V10l1.34-1L23.4,9a14.23,14.23,0,0,1,1.39,1.41c.59.71,1,.65,1.45.34a1.92,1.92,0,0,0,.59-1.13l.05-.32.15.28s.27.52.48.86a1.08,1.08,0,0,0,.67.53.8.8,0,0,0,.86-.12,1.07,1.07,0,0,0,.41-1.26A1.05,1.05,0,0,0,29,9.15a1.3,1.3,0,0,1-.47-.54A.64.64,0,0,1,28.6,8a.92.92,0,0,1,.78-.35,2.11,2.11,0,0,1,1.26.75A1.56,1.56,0,0,1,31,9.66,2.84,2.84,0,0,1,28.93,12,1.81,1.81,0,0,1,28.53,12.08Zm-1.61-1.16A.17.17,0,0,1,27,11h0a1.74,1.74,0,0,0,1.78.8,2.67,2.67,0,0,0,1.92-2.3,1.35,1.35,0,0,0-.31-1.07,1.91,1.91,0,0,0-1.11-.68.69.69,0,0,0-.59.25.43.43,0,0,0,0,.44,1,1,0,0,0,.41.45,1.25,1.25,0,0,1,.4,1.71,1.27,1.27,0,0,1-.4.4,1.05,1.05,0,0,1-1.08.13,1.37,1.37,0,0,1-.77-.61c-.12-.18-.25-.42-.36-.6a1.79,1.79,0,0,1-.58,1c-.62.43-1.16.32-1.72-.38a16.44,16.44,0,0,0-1.31-1.33L22.24,10c.07.3.28,1,.59,1.12a.61.61,0,0,0,.86-.14.75.75,0,0,0,.1-.33.24.24,0,0,1,.13-.25.2.2,0,0,1,.15,0l.12.18c.21.32.69,1.08,1.25,1.16a1.23,1.23,0,0,0,1.21-.38,1.89,1.89,0,0,0,.11-.25.32.32,0,0,1,.19-.26Z"/><path class="cls-1" d="M33.3,5.94h-.21a5.29,5.29,0,0,0-.23-1.85A1.83,1.83,0,0,0,31.93,3,1.83,1.83,0,0,0,31,4.09a5.06,5.06,0,0,0-.23,1.85h-.22A5.52,5.52,0,0,1,30.8,4a1.9,1.9,0,0,1,1.1-1.26h0A1.92,1.92,0,0,1,33,4,5.31,5.31,0,0,1,33.3,5.94Z"/><path class="cls-1" d="M35.26,12.08h-.37A2.87,2.87,0,0,1,32.8,9.61a1.57,1.57,0,0,1,.36-1.26,2.05,2.05,0,0,1,1.26-.76.92.92,0,0,1,.78.35.68.68,0,0,1,0,.65,1.23,1.23,0,0,1-.47.54,1.05,1.05,0,0,0-.43.48,1.11,1.11,0,0,0,.46,1.24.8.8,0,0,0,.86.11,1,1,0,0,0,.67-.52,9.09,9.09,0,0,0,.49-.86l.14-.28v.31a2,2,0,0,0,.59,1.14c.44.31.86.37,1.45-.34A13.41,13.41,0,0,1,40.36,9l.06-.06,1.36,1V10a2.67,2.67,0,0,1-.71,1.34A.86.86,0,0,1,40,11.11a1.32,1.32,0,0,1-.13-.38h0c-.25.38-.75,1.16-1.4,1.25A1.4,1.4,0,0,1,37,11.5c0-.09-.09-.19-.13-.28v-.07A2,2,0,0,1,35.26,12.08Zm-.8-4.3h0a1.85,1.85,0,0,0-1.1.68,1.31,1.31,0,0,0-.31,1.07,2.61,2.61,0,0,0,2,2.32,1.72,1.72,0,0,0,1.72-.8h0a.2.2,0,0,1,.15-.06c.1,0,.14.13.19.26a1.89,1.89,0,0,0,.11.25,1.23,1.23,0,0,0,1.21.38c.55-.08,1-.86,1.25-1.16l.12-.17a.14.14,0,0,1,.15,0c.08,0,.1.12.13.25a.75.75,0,0,0,.1.32.61.61,0,0,0,.85.15h0c.31-.17.52-.86.59-1.12L40.5,9.35a16.44,16.44,0,0,0-1.31,1.33c-.58.7-1.12.82-1.72.38a1.84,1.84,0,0,1-.61-1c-.1.18-.24.41-.36.59a1.33,1.33,0,0,1-.77.61,1,1,0,0,1-1.07-.13,1.31,1.31,0,0,1-.5-1.53,1.34,1.34,0,0,1,.5-.58,1,1,0,0,0,.4-.44.43.43,0,0,0,0-.44A.66.66,0,0,0,34.46,7.78Z"/><path class="cls-1" d="M40.81,9.85a1.76,1.76,0,0,0-1-.56c-.35-.07-.72-.26-.72-.64s.17-.45.27-.64-.33-.48,0-.93A.59.59,0,0,1,40.19,7h0l.12.11c.17.17.15-.11.38-.25a.94.94,0,0,1,.62,0c.13,0,.2-.21.32-.43a.49.49,0,0,1,.56-.24c.26,0,.5.23.6.12s.55-.58.92-.41.68.53.15,1.11-1.43,1.29-1.48,1.67.11.58,0,1a.86.86,0,0,1-.45.63l-.09.18a6.4,6.4,0,0,0-.45,1.34,3.86,3.86,0,0,1-.17.58h-9.3V7.05a22,22,0,0,0,.3,3.8c.27.81.68,1.15,1.14,1.16s.6,0,.51-.12a3.29,3.29,0,0,1-.75-.87,4.19,4.19,0,0,1-.58-2.29A8.9,8.9,0,0,1,33.23,5a1.25,1.25,0,0,1,1.51-.76c.79.28.31,1.19.25,1.34s-.26.26,0,.23,1.39-.14,1.56.6-.46,1.13-1.06,1.11A2.14,2.14,0,0,0,33.7,8c-.56.56-.92.79-.81,1.37s.42,1.85,1,2.14,1.12.67,1.62.49a2.72,2.72,0,0,0,1.08-.62l.3-.32s.15.62.58.76a1.51,1.51,0,0,0,1.4-.06,10.85,10.85,0,0,0,1-1.24s.18.86.54.86a.9.9,0,0,0,1-.61c.21-.58.27-.48.19-.48a1,1,0,0,1-.49-.09A.54.54,0,0,1,40.81,9.85Z"/><path class="cls-1" d="M35.48,8.61a.63.63,0,0,1,.77-.44h.09c.27.06.41.47.32-.17a.66.66,0,0,1,.57-.72h.18c.57.06.94.62.69,1L38,8.47c-.38.39,0,.2.09.17l.35-.17a.65.65,0,0,1,.68.6A.62.62,0,0,1,39,9.4a.55.55,0,0,1-.49.26c-.19,0-.61,0-.07.24a.52.52,0,0,1,.07.71.68.68,0,0,1-.86.2,3.35,3.35,0,0,0-.86-.34c-.24,0-1,.09-1.12.08a.52.52,0,0,1-.48-.54.51.51,0,0,1,.43-.53c.38-.07.58-.06.32-.17l-.3-.16C35.4,9.06,35.48,8.61,35.48,8.61Z"/><path class="cls-3" d="M31.93,18.06H14.54V42.7h0a15.19,15.19,0,0,0,6.65,12.53l.55.38,3,1.46a26.37,26.37,0,0,0,3.52,1.36l3.64,1.12,3.65-1.12A24.13,24.13,0,0,0,39.11,57l3-1.46.55-.38a15.11,15.11,0,0,0,6.6-12.52h0V18.06Z"/><path class="cls-4" d="M31.91,59.85h-.07c-.25-.08-6.09-2-7.24-2.53-1.78-.86-3-1.47-3.59-1.84A14.81,14.81,0,0,1,14.3,42.7V17.79H49.58v25c0,5.4-2.58,10.33-6.74,12.76-.63.37-1.81,1-3.59,1.84-1.15.52-7,2.46-7.25,2.46ZM14.81,18.32V42.7A14.14,14.14,0,0,0,21.29,55c.61.37,1.8,1,3.54,1.84,1.05.5,6.36,2.23,7.08,2.47.74-.24,6-2,7.09-2.47,1.73-.86,2.94-1.47,3.55-1.84A14.16,14.16,0,0,0,49,42.7V18.32Z"/><path class="cls-5" d="M38.47,30a11.24,11.24,0,0,0-.21-2.59c-.07-.15-.43-.31-1.1-.45a7.42,7.42,0,0,0-1.4-.22c-.09,0-.12-.11-.12-.33a.63.63,0,0,1,.12-.46l1.64.1c.82.06,1.52.08,2.09.08A17.65,17.65,0,0,0,41.55,26L43,25.92a1.31,1.31,0,0,1,.07.44c0,.23,0,.35-.13.35a7.91,7.91,0,0,0-1.36.24c-.71.15-1.09.3-1.13.43a10.74,10.74,0,0,0-.25,2.71V41.22c0,1.09,0,2.32.08,3.68a.47.47,0,0,1-.45.51H39.7a1.41,1.41,0,0,1-1-.67L26.4,31V41.12a11.36,11.36,0,0,0,.22,2.73c.05.14.4.28,1.06.42a8.33,8.33,0,0,0,1.31.22c.06,0,.09.12.11.35a1.16,1.16,0,0,1-.05.49c-2.1-.09-3.29-.15-3.6-.15l-3.63.15c-.06,0-.09-.2-.09-.43s0-.41.09-.41a7.71,7.71,0,0,0,1.44-.22c.66-.14,1-.31,1.08-.48a8,8,0,0,0,.29-2.7V29.59a8.5,8.5,0,0,0-.23-2.19c-.06-.15-.42-.3-1.06-.42a9.69,9.69,0,0,0-1.42-.19c-.09,0-.13-.13-.13-.37a.64.64,0,0,1,.13-.48c1.63,0,2.2.06,2.71.06h.53a2.52,2.52,0,0,1,1.91.91c1.67,2,5.82,6.3,11,13a.2.2,0,0,0,.27,0,.21.21,0,0,0,.07-.13V39Z"/></svg>