<svg id="Слой_1" data-name="Слой 1" xmlns="http://www.w3.org/2000/svg" viewBox="0 0 32 32"><defs><style>.cls-1{fill:#fff;}</style></defs><path class="cls-1" d="M16,0A16,16,0,1,0,32,16,16,16,0,0,0,16,0Zm9.17,23-2.81,0a2,2,0,0,1-1.4-.43c-1-.72-2-2.59-2.81-2.35s-.75,1.94-.75,1.94a.93.93,0,0,1-.18.55,1,1,0,0,1-.57.25H15.4a7.25,7.25,0,0,1-5.22-2.38c-2.66-2.77-5-8.27-5-8.27s-.13-.36,0-.53.61-.21.61-.21l3,0a1.32,1.32,0,0,1,.49.2.88.88,0,0,1,.26.35,19,19,0,0,0,1.13,2.34c1.25,2.16,1.83,2.64,2.26,2.41.62-.34.44-3.07.44-3.07a3,3,0,0,0-.32-1.43,1.43,1.43,0,0,0-.93-.47c-.17,0,.11-.41.47-.59a6.91,6.91,0,0,1,2.62-.27,5.45,5.45,0,0,1,1.47.15c1,.25.69,1.22.69,3.53,0,.74-.14,1.79.4,2.13.23.15.79,0,2.2-2.37a18.7,18.7,0,0,0,1.16-2.46.88.88,0,0,1,.28-.34.76.76,0,0,1,.41-.07l3.16,0s1-.11,1.1.32-.35,1.5-1.64,3.22c-2.12,2.82-2.36,2.56-.6,4.19a9.7,9.7,0,0,1,2.09,2.41C26.63,22.93,25.17,23,25.17,23Z"/></svg>